<svg width="405" height="405" viewBox="0 0 405 405" fill="none" xmlns="http://www.w3.org/2000/svg">
<path d="M202.142 404.283C313.781 404.283 404.283 313.781 404.283 202.142C404.283 90.502 313.781 0 202.142 0C90.502 0 0 90.502 0 202.142C0 313.781 90.502 404.283 202.142 404.283Z" fill="#E5E1D7"/>
<path d="M262.456 191.114C276.431 172.147 270.656 151.327 267.447 143.697C263.026 133.073 253.757 128.581 257.393 109.686C258.606 103.269 260.745 88.2237 248.908 81.5213C233.151 72.5371 220.673 84.8012 214.897 88.9368C209.05 93.0723 209.906 91.7176 200.993 91.7176C192.151 91.7176 192.936 93.0723 187.16 88.9368C181.313 84.8012 168.693 72.2519 153.149 81.5213C140.172 89.222 143.452 103.269 144.664 109.686C148.158 127.868 139.744 132.717 135.109 142.556C145.234 147.548 151.723 158.457 150.582 170.365C150.511 170.792 150.297 172.361 150.297 172.575C150.011 174.072 149.441 177.994 148.942 179.42C146.018 188.262 142.453 195.463 138.532 201.381C141.669 195.321 144.307 188.048 146.304 179.42C146.66 177.994 146.874 174.001 147.017 172.504C147.017 172.29 147.088 170.721 147.088 170.293C147.088 154.821 134.539 142.2 118.995 142.2C103.665 142.2 91.1866 154.535 90.9727 169.794C90.7588 185.481 85.2685 204.305 69.6533 231.899C77.2113 230.758 92.2562 227.977 104.306 216.925C95.037 228.476 81.2755 231.899 81.2755 231.899C81.2755 231.899 86.7659 233.04 94.6805 232.255C85.7676 239.814 82.6303 248.013 83.2007 262.345C85.4111 313.184 153.505 339.067 200.209 339.067C200.351 339.067 200.423 339.067 200.565 339.067C201.635 339.067 202.062 339.067 202.062 339.067C202.205 339.067 202.276 339.067 202.419 339.067C254.185 339.067 319.427 313.255 319.427 262.345C319.641 222.273 297.537 210.223 262.456 191.114Z" fill="black"/>
<path d="M202.134 396.109C95.1795 396.109 8.11865 309.12 8.11865 202.165C8.11865 95.2111 95.1081 8.15039 202.134 8.15039C309.088 8.15039 396.149 95.1398 396.149 202.165C396.077 309.12 309.088 396.109 202.134 396.109ZM202.134 13.1416C97.9603 13.1416 13.1812 97.9206 13.1812 202.094C13.1812 306.267 97.9603 391.047 202.134 391.047C306.307 391.047 391.086 306.267 391.086 202.094C391.086 97.9206 306.307 13.1416 202.134 13.1416Z" fill="#221E1F"/>
<path d="M123.772 362.454L132.328 342.846L144.806 348.336L143.665 350.974L134.111 346.767L131.615 352.472L139.744 356.037L138.603 358.675L130.474 355.11L127.908 360.957L137.462 365.163L136.321 367.802L123.772 362.454Z" fill="#221E1F"/>
<path d="M148.514 372.152C145.448 371.225 143.451 369.799 142.097 367.232L144.806 365.806C145.876 367.731 147.373 368.729 149.441 369.371C152.079 370.155 154.004 369.514 154.646 367.517C154.931 366.661 154.86 365.806 154.503 365.164C154.147 364.522 153.648 364.166 152.507 363.595L150.225 362.526C148.657 361.813 147.516 360.815 146.874 359.745C146.161 358.462 146.09 357.035 146.589 355.396C147.658 351.83 151.01 350.19 155.216 351.474C157.926 352.258 159.637 353.542 160.849 355.752L158.282 357.107C157.355 355.538 156.001 354.682 154.289 354.183C151.865 353.47 150.154 354.469 149.583 356.251C149.37 356.964 149.37 357.749 149.797 358.39C150.154 359.032 150.938 359.602 151.794 360.03L154.004 361.1C155.787 361.955 156.714 362.74 157.355 363.809C158.211 365.164 158.282 366.733 157.783 368.515C156.5 372.152 152.792 373.506 148.514 372.152Z" fill="#221E1F"/>
<path d="M173.256 358.961L169.905 377.143L166.696 376.573L170.048 358.39L164.272 357.321L164.771 354.469L179.531 357.178L179.032 360.03L173.256 358.961Z" fill="#221E1F"/>
<path d="M195.289 377.713C193.863 378.996 191.866 379.495 189.656 379.353L182.169 378.925L183.452 357.605L190.939 358.033C193.15 358.176 195.075 358.96 196.358 360.386C198.497 362.811 198.212 365.948 197.998 369.014C197.784 372.151 197.713 375.574 195.289 377.713ZM194.005 362.597C193.15 361.527 192.009 361.028 190.44 360.957L186.518 360.743L185.591 376.287L189.513 376.501C191.01 376.572 192.294 376.215 193.221 375.289C194.433 374.148 194.576 371.795 194.79 368.871C194.932 365.948 195.003 363.88 194.005 362.597Z" fill="#221E1F"/>
<path d="M204.13 379.71L203.988 376.073L207.624 375.931L207.767 379.567L204.13 379.71Z" fill="#221E1F"/>
<path d="M223.382 378.355L222.954 375.646L229.443 364.451C230.084 363.31 230.298 362.526 230.084 361.456C229.799 359.531 228.444 358.462 226.448 358.747C224.879 359.032 223.453 360.173 223.881 362.526L220.886 363.025C220.316 359.46 222.455 356.679 226.02 356.037C229.657 355.467 232.509 357.321 233.079 360.957C233.364 362.811 232.865 364.023 231.867 365.877L226.591 375.075L235.147 373.649L235.575 376.359L223.382 378.355Z" fill="#221E1F"/>
<path d="M247.554 373.506C244.274 374.433 240.994 372.936 239.995 369.228L237.429 360.101C236.43 356.394 238.427 353.47 241.707 352.543C244.987 351.616 248.267 353.114 249.336 356.75L251.903 365.877C252.901 369.585 250.833 372.579 247.554 373.506ZM246.413 357.677C245.842 355.681 244.345 354.611 242.491 355.181C240.637 355.681 239.924 357.392 240.423 359.388L242.919 368.372C243.489 370.369 244.915 371.438 246.84 370.868C248.694 370.369 249.479 368.658 248.908 366.661L246.413 357.677Z" fill="#221E1F"/>
<path d="M264.809 367.517L258.178 350.761L255.682 355.68L254.399 352.543L256.966 347.623L259.818 346.482L267.732 366.376L264.809 367.517Z" fill="#221E1F"/>
<path d="M282.135 359.745C279.141 361.314 275.576 360.53 273.864 357.178L269.444 348.765C267.661 345.413 269.016 342.062 272.01 340.493C275.005 338.925 278.57 339.638 280.353 343.06L284.774 351.474C286.556 354.825 285.13 358.177 282.135 359.745ZM277.715 344.558C276.716 342.704 275.076 341.991 273.365 342.918C271.654 343.845 271.297 345.627 272.224 347.41L276.574 355.681C277.572 357.535 279.212 358.248 280.923 357.321C282.635 356.394 283.062 354.611 282.064 352.758L277.715 344.558Z" fill="#221E1F"/>
<path d="M59.1003 278.46L62.2376 284.236L72.2201 278.745L74.3591 282.596L48.9753 296.5L43.6989 286.874C40.9894 281.883 42.558 276.963 46.9788 274.538C51.3283 272.114 56.3908 273.469 59.1003 278.46ZM47.264 285.234L50.33 290.795L58.8151 286.161L55.749 280.599C54.2517 277.961 51.7561 276.963 49.0466 278.389C46.3371 279.886 45.7666 282.524 47.264 285.234Z" fill="#221E1F"/>
<path d="M60.0984 252.648L58.3872 253.29C60.3123 254.146 61.3819 255.286 62.3088 257.639C63.2357 260.064 63.2357 261.846 62.5227 263.486C61.881 264.841 60.5975 265.982 58.9576 266.552C55.7489 267.764 52.5403 266.41 50.9004 261.989L48.9752 256.926L47.6204 257.426C45.1961 258.352 44.4831 259.992 45.6239 262.987C46.4083 265.126 47.3352 265.982 49.1178 266.481L47.6917 269.975C44.8396 268.977 43.4849 267.337 42.2727 264.128C40.2762 258.852 41.4884 255.358 45.8379 253.646L58.7437 248.727L60.0984 252.648ZM51.6134 255.999L53.3246 260.492C54.1803 262.773 55.6776 263.558 57.3889 262.916C59.1002 262.274 59.6706 260.777 58.7437 258.352C58.1732 256.855 57.6741 255.786 56.2481 255.144C55.4637 254.787 54.4655 254.859 53.1107 255.429L51.6134 255.999Z" fill="#221E1F"/>
<path d="M55.8203 237.175C56.9611 241.667 55.3212 246.801 47.7631 248.655C40.2763 250.509 36.4259 246.801 35.2851 242.309C34.572 239.528 34.9286 237.389 36.4259 235.036L39.7771 237.104C38.7076 238.744 38.4224 239.813 38.8502 241.382C39.2067 242.95 40.205 244.091 41.5597 244.662C42.9145 245.232 44.4118 245.232 46.6935 244.662C49.0465 244.091 50.4013 243.378 51.2569 242.237C52.1838 241.097 52.469 239.599 52.1125 238.102C51.6847 236.533 50.9717 235.678 49.2604 234.751L51.1856 231.328C53.7525 232.683 55.1072 234.394 55.8203 237.175Z" fill="#221E1F"/>
<path d="M51.8987 215.428L43.1284 222.344L46.9075 224.982L52.8969 224.269L53.396 228.405L24.661 231.97L24.1619 227.834L41.845 225.624L31.4348 218.85L30.793 213.859L39.7059 219.991L51.1143 210.437L51.8987 215.428Z" fill="#221E1F"/>
<path d="M26.8712 209.296L22.4505 209.439L22.3079 205.018L26.7286 204.875L26.8712 209.296ZM51.542 208.44L30.9355 209.011L30.7929 204.875L51.3994 204.305L51.542 208.44Z" fill="#221E1F"/>
<path d="M52.0412 187.478L39.4919 186.622C36.2833 186.408 34.786 188.119 34.6433 190.472C34.5007 192.754 35.7842 194.822 38.9215 195.036L51.4708 195.891L51.1856 200.027L30.6504 198.601L30.9356 194.537L33.0034 194.679C31.5773 193.182 30.9356 191.114 31.0782 189.046C31.2208 186.907 32.0051 185.267 33.2886 184.127C34.9286 182.629 36.925 182.273 39.2067 182.487L52.3265 183.413L52.0412 187.478Z" fill="#221E1F"/>
<path d="M62.6652 174.501C62.0235 177.567 60.954 179.349 58.5297 181.061L56.4619 177.923C57.8879 176.925 58.7436 175.927 59.1714 173.93C59.8844 170.508 57.7453 168.725 55.0358 168.155L52.4689 167.656C53.895 169.51 54.1089 171.292 53.6811 173.36C53.2533 175.356 52.255 176.925 50.9003 177.781C48.5473 179.349 45.6239 179.064 42.2013 178.351C38.7788 177.638 35.998 176.783 34.4293 174.43C33.5737 173.075 33.2885 171.221 33.645 169.224C34.0728 167.085 34.9997 165.588 37.1388 164.447L34.9997 164.019L35.7841 160.098L55.8915 164.233C60.8827 165.089 63.8061 169.153 62.6652 174.501ZM37.5666 168.868C36.7823 172.504 39.8483 173.645 43.057 174.287C46.2656 174.929 49.4742 175.143 50.2585 171.435C51.0429 167.798 47.9769 166.658 44.7682 166.016C41.5596 165.374 38.2797 165.16 37.5666 168.868Z" fill="#221E1F"/>
<path d="M67.2288 134.356L65.8028 137.565L50.6866 136.21L62.0237 146.406L60.5977 149.686L39.1355 147.262L40.9181 143.269L55.8204 145.408L44.4119 135.212L45.6954 132.288L60.8829 133.715L49.1892 124.303L50.9718 120.238L67.2288 134.356Z" fill="#221E1F"/>
<path d="M49.6882 115.462L45.9092 113.252L48.1196 109.473L51.8986 111.683L49.6882 115.462ZM71.0078 127.797L53.2534 117.387L55.3211 113.822L73.0756 124.232L71.0078 127.797Z" fill="#221E1F"/>
<path d="M78.9224 115.318C76.7833 118.527 73.4321 118.455 71.0077 116.744L61.5957 110.398L60.241 112.323L57.6028 110.541L58.9575 108.616L53.7524 105.122L56.1054 101.699L61.3105 105.193L63.5209 101.913L66.1591 103.696L63.9487 106.976L73.1469 113.25C74.359 114.106 75.5712 113.963 76.4268 112.751L77.3537 111.325L80.2772 113.322L78.9224 115.318Z" fill="#221E1F"/>
<path d="M90.0457 101.273L80.4198 93.073C78.0668 91.0765 75.7851 91.5757 74.2878 93.2869C72.7904 95.0695 72.6478 97.4225 75.0008 99.419L84.6267 107.619L81.9172 110.756L59.8132 92.0035L62.5227 88.8661L70.4373 95.5686C70.1521 93.5008 70.7939 91.5756 72.1487 90.007C75.1434 86.5131 79.1364 86.5132 82.5589 89.4366L92.6839 98.0642L90.0457 101.273Z" fill="#221E1F"/>
<path d="M113.433 76.6725C113.148 79.2394 111.579 81.5924 109.226 83.4463L101.24 89.721L83.3433 66.9754L91.3292 60.7007C93.6822 58.8468 96.3204 57.9199 98.8873 58.2051C103.308 58.7042 105.732 62.1981 108.299 65.478C110.937 68.7579 114.003 72.2518 113.433 76.6725ZM98.5308 62.5546C96.7482 62.2694 95.1082 62.7685 93.4683 64.0519L89.2614 67.3319L102.31 83.8741L106.517 80.5942C108.157 79.3107 109.084 77.8134 109.155 76.0308C109.298 73.8204 107.372 71.3248 104.948 68.1875C102.452 65.0502 100.741 62.9111 98.5308 62.5546Z" fill="#221E1F"/>
<path d="M107.586 54.426L105.233 50.7182L108.941 48.3652L111.294 52.073L107.586 54.426ZM120.706 75.3177L109.797 57.7772L113.29 55.5668L124.2 73.1073L120.706 75.3177Z" fill="#221E1F"/>
<path d="M133.968 67.9737C130.973 69.4711 128.193 70.2554 124.913 69.2572L126.125 65.6208C128.407 66.4051 130.546 65.7634 132.4 64.8364C134.681 63.6956 136.036 61.9843 135.18 60.273C134.539 59.0609 133.469 58.5618 131.615 59.3461L128.549 60.5583C124.984 61.9843 122.203 61.4852 120.563 58.2053C118.781 54.6401 120.777 51.0037 124.628 49.0785C127.408 47.6524 130.047 47.082 132.471 47.7237L131.33 51.2889C129.69 50.8611 127.836 51.3602 126.125 52.2158C123.914 53.3567 123.273 54.854 123.986 56.2801C124.556 57.3496 125.554 57.92 127.622 57.1357L130.688 55.9236C134.253 54.4975 137.106 55.0679 138.817 58.3479C140.599 62.1269 138.318 65.7634 133.968 67.9737Z" fill="#221E1F"/>
<path d="M154.289 59.2028L153.648 57.4202C152.721 59.3454 151.58 60.4149 149.227 61.2706C146.803 62.1262 145.02 62.1262 143.38 61.4132C142.025 60.7715 140.956 59.4167 140.314 57.7767C139.173 54.4968 140.528 51.3595 145.02 49.7908L150.154 47.9369L149.655 46.5822C148.799 44.1579 147.088 43.3736 144.093 44.5144C141.954 45.2987 141.098 46.1544 140.528 47.9369L137.105 46.4396C138.175 43.6588 139.815 42.304 143.024 41.1632C148.371 39.238 151.865 40.5215 153.434 44.9422L158.14 57.9193L154.289 59.2028ZM151.152 50.6465L146.589 52.2864C144.307 53.1421 143.451 54.5681 144.093 56.3507C144.735 58.1333 146.161 58.7037 148.657 57.848C150.154 57.2776 151.223 56.7785 151.865 55.4237C152.222 54.6394 152.15 53.6412 151.651 52.2864L151.152 50.6465Z" fill="#221E1F"/>
<path d="M175.752 52.0018C174.896 53.3566 173.256 54.4261 171.188 54.8539C168.978 55.353 167.267 55.1391 165.341 53.6418L165.841 55.7808L161.848 56.6365L155.573 28.4006L159.637 27.4736L161.848 37.6699C162.917 35.6022 164.486 34.7465 166.625 34.2474C168.621 33.8196 170.547 34.1048 171.901 34.9604C174.397 36.5291 175.395 39.8803 176.037 42.9463C176.821 46.0124 177.32 49.5775 175.752 52.0018ZM166.411 38.0978C162.775 38.8821 162.917 42.0907 163.702 45.7272C164.486 49.2923 165.769 52.287 169.406 51.5027C173.042 50.7183 172.9 47.4384 172.115 43.8733C171.26 40.3081 170.047 37.3134 166.411 38.0978Z" fill="#221E1F"/>
<path d="M187.16 52.1452C183.239 52.573 181.242 50.1487 180.886 47.154L178.176 24.0519L182.312 23.5527L185.021 46.4409C185.235 48.0096 185.877 48.7226 187.517 48.58L189.371 48.3661L189.798 51.8599L187.16 52.1452Z" fill="#221E1F"/>
<path d="M193.791 42.4474C193.863 46.0125 195.788 48.1516 199.139 48.0803C201.492 48.009 202.633 47.3673 204.059 45.8699L206.768 48.2942C204.701 50.4333 202.775 51.5741 199.139 51.7167C194.005 51.8594 189.87 49.2211 189.656 41.3778C189.513 34.6754 192.864 30.7537 198.141 30.6111C203.702 30.4685 206.982 34.4615 207.125 40.3083L207.196 42.1622L193.791 42.4474ZM202.348 36.6006C201.635 35.1032 200.137 34.0337 198.212 34.105C196.287 34.1763 194.79 35.2458 194.148 36.8145C193.791 37.7414 193.72 38.3831 193.72 39.6666L202.989 39.4527C202.918 38.0979 202.775 37.5275 202.348 36.6006Z" fill="#221E1F"/>
<path d="M222.099 52.7145L222.313 50.5042C220.601 52.2154 218.89 52.5719 216.608 52.358C214.541 52.1441 212.829 51.2885 211.76 50.005C209.906 47.7233 210.048 44.1582 210.405 41.0922C210.761 37.9549 211.332 34.5323 213.614 32.6784C214.897 31.6802 216.751 31.1811 218.747 31.395C220.958 31.6089 222.598 32.3219 223.881 34.2471L224.951 23.9082L229.086 24.336L226.02 53.1424L222.099 52.7145ZM219.603 35.174C215.895 34.7462 214.968 37.8836 214.612 41.52C214.255 45.1564 214.469 48.4364 218.177 48.7929C221.885 49.2207 222.74 46.0834 223.168 42.4469C223.525 38.8105 223.311 35.5306 219.603 35.174Z" fill="#221E1F"/>
<path d="M255.825 61.1292L254.47 57.7066C252.901 58.3483 250.049 59.5605 245.914 58.2057C240.209 56.3519 238.07 52.145 239.71 47.1538C240.922 43.3035 244.416 42.02 247.696 41.1644C246.912 39.3105 245.914 36.8862 246.769 34.3193C247.91 30.8255 251.404 29.0429 255.468 30.3976C259.39 31.6811 261.172 35.1749 260.032 38.6688C259.319 40.8079 257.607 41.9487 255.54 42.5904C255.54 42.5904 253.9 43.0895 253.044 43.3035L256.609 52.0737C258.106 51.0042 259.033 49.5068 259.889 47.0112L263.668 48.2233C262.385 51.7172 260.745 54.2128 258.178 55.7814L261.03 62.7691L255.825 61.1292ZM249.051 44.2304C246.555 44.9434 244.488 45.6564 243.632 48.2233C242.776 50.9329 244.274 53.5711 247.126 54.498C248.98 55.0684 250.762 55.1397 253.044 54.0702L249.051 44.2304ZM254.327 33.7489C252.616 33.1785 251.261 34.0341 250.762 35.6027C250.406 36.7436 250.762 38.027 251.689 40.0948C252.188 39.9522 253.258 39.667 253.258 39.667C254.613 39.3105 255.753 38.7401 256.181 37.4566C256.68 35.8167 255.967 34.248 254.327 33.7489Z" fill="#221E1F"/>
<path d="M277.073 71.6821C273.294 69.4717 271.084 67.0474 270.157 63.2684L274.15 62.2702C274.934 65.1936 276.574 66.9048 279.141 68.4022C282.421 70.3274 285.13 69.9709 286.556 67.5466C287.198 66.477 287.412 65.3362 287.055 64.3379C286.77 63.3397 286.271 62.7693 284.916 61.6997L282.207 59.5607C280.353 58.0633 279.141 56.4233 278.642 54.7834C278.071 52.9295 278.428 51.0043 279.569 48.9365C282.064 44.5871 286.984 43.4462 292.189 46.4409C295.469 48.3661 297.323 50.5765 298.321 53.7851L294.542 54.7834C293.829 52.4304 292.332 50.933 290.193 49.7209C287.269 48.0096 284.631 48.7939 283.348 51.0043C282.849 51.9313 282.635 52.8582 282.92 53.8564C283.205 54.7834 283.989 55.7816 285.059 56.6372L287.697 58.705C289.836 60.4163 290.763 61.6997 291.262 63.2684C291.975 65.2649 291.548 67.4753 290.335 69.6143C287.697 74.1777 282.35 74.7482 277.073 71.6821Z" fill="#221E1F"/>
<path d="M296.467 73.0367C294.328 75.8175 294.4 78.7409 297.109 80.8087C298.963 82.2348 300.318 82.4487 302.386 82.2348L302.956 85.7999C299.961 86.1564 297.751 85.7999 294.899 83.5895C290.835 80.4522 289.266 75.7462 294.043 69.5429C298.107 64.2665 303.241 63.3395 307.377 66.5481C311.726 69.8994 311.797 75.1045 308.232 79.7392L307.092 81.1652L296.467 73.0367ZM306.878 73.8923C307.305 72.2524 306.806 70.5411 305.238 69.3289C303.669 68.1168 301.886 68.0455 300.389 68.9011C299.462 69.4003 299.034 69.8281 298.25 70.8263L305.594 76.5305C306.307 75.461 306.592 74.8906 306.878 73.8923Z" fill="#221E1F"/>
<path d="M312.51 99.4186L321.423 90.577C323.705 88.2953 323.42 86.0136 321.78 84.3737C320.14 82.7337 317.787 82.3059 315.505 84.5876L306.592 93.4291L303.669 90.5057L318.357 76.0312L321.209 78.9547L319.712 80.3807C321.78 80.3094 323.776 81.1651 325.202 82.6624C326.7 84.1598 327.413 85.871 327.413 87.5823C327.413 89.7927 326.415 91.504 324.703 93.1439L315.291 102.413L312.51 99.4186Z" fill="#221E1F"/>
<path d="M317.929 105.622L333.973 92.6446L336.611 95.8532L320.568 108.83L317.929 105.622ZM337.039 89.9351L340.461 87.1543L343.242 90.5768L339.819 93.3576L337.039 89.9351Z" fill="#221E1F"/>
<path d="M332.76 122.307C330.835 121.951 328.839 120.881 327.27 118.528C325.701 116.175 325.488 113.965 325.915 112.039C326.557 109.259 328.411 107.405 331.334 105.48C334.186 103.554 336.611 102.556 339.392 103.055C341.317 103.412 343.242 104.481 344.811 106.834C346.379 109.187 346.593 111.469 346.237 113.323C345.595 116.104 343.741 117.958 340.889 119.811C337.966 121.808 335.541 122.806 332.76 122.307ZM342.458 112.111C342.672 111.041 342.458 109.9 341.745 108.902C341.103 107.904 340.176 107.262 339.106 107.048C337.324 106.692 335.47 107.761 333.616 108.973C331.762 110.186 330.051 111.54 329.694 113.323C329.48 114.392 329.694 115.462 330.336 116.532C330.978 117.53 331.976 118.171 333.046 118.385C334.828 118.742 336.682 117.672 338.536 116.46C340.39 115.177 342.101 113.822 342.458 112.111Z" fill="#221E1F"/>
<path d="M352.939 131.362C353.367 130.078 353.438 129.223 352.797 128.011C351.798 126.014 349.303 125.158 346.807 126.442L335.684 132.146L333.83 128.438L352.155 119.098L354.009 122.734L352.012 123.732C353.795 124.018 355.649 125.444 356.718 127.511C357.645 129.294 357.859 130.863 357.217 132.788L352.939 131.362Z" fill="#221E1F"/>
<path d="M357.859 157.031L355.934 150.757L345.025 154.037L343.741 149.83L371.478 141.416L374.687 151.898C376.327 157.317 373.76 161.88 368.982 163.306C364.134 164.803 359.499 162.45 357.859 157.031ZM370.836 152.824L368.982 146.764L359.784 149.545L361.638 155.605C362.494 158.529 364.776 160.026 367.699 159.099C370.551 158.243 371.692 155.748 370.836 152.824Z" fill="#221E1F"/>
<path d="M351.513 182.058L353.367 181.773C351.656 180.49 350.8 179.206 350.444 176.711C350.016 174.215 350.372 172.433 351.442 170.935C352.369 169.723 353.866 168.939 355.577 168.654C359 168.083 361.852 170.08 362.565 174.714L363.421 180.062L364.847 179.848C367.414 179.42 368.483 177.923 367.984 174.786C367.628 172.504 366.915 171.506 365.275 170.65L367.342 167.584C369.909 169.153 370.907 171.078 371.407 174.429C372.262 179.991 370.408 183.199 365.774 183.912L352.155 186.051L351.513 182.058ZM360.497 180.561L359.713 175.784C359.356 173.36 358.073 172.29 356.219 172.575C354.365 172.86 353.51 174.215 353.937 176.782C354.223 178.351 354.508 179.492 355.72 180.419C356.433 180.918 357.431 181.06 358.857 180.846L360.497 180.561Z" fill="#221E1F"/>
<path d="M368.768 200.668C369.695 199.67 370.052 198.957 369.98 197.531C369.909 195.321 367.984 193.538 365.203 193.609L352.725 194.18L352.511 190.044L373.118 189.117L373.332 193.181L371.121 193.253C372.619 194.251 373.759 196.319 373.831 198.6C373.902 200.597 373.474 202.094 372.119 203.592L368.768 200.668Z" fill="#221E1F"/>
<path d="M352.583 211.72C352.725 207.87 355.577 206.23 358.572 206.372L369.909 206.872L370.052 204.519L373.189 204.661L373.046 207.014L379.321 207.299L379.107 211.435L372.833 211.15L372.619 215.143L369.481 215L369.695 211.007L358.572 210.508C357.075 210.437 356.148 211.15 356.076 212.647L356.005 214.358L352.44 214.216L352.583 211.72Z" fill="#221E1F"/>
<path d="M350.443 229.546L362.85 231.472C366.059 231.971 367.699 230.331 368.055 228.049C368.412 225.767 367.271 223.628 364.134 223.129L351.727 221.204L352.369 217.068L372.761 220.206L372.12 224.199L370.052 223.913C371.335 225.553 371.834 227.621 371.478 229.689C371.121 231.757 370.194 233.397 368.84 234.395C367.057 235.75 365.061 235.892 362.779 235.536L349.73 233.539L350.443 229.546Z" fill="#221E1F"/>
<path d="M356.789 242.88C353.367 241.882 350.729 243.023 349.802 246.303C349.16 248.513 349.445 249.868 350.444 251.722L347.306 253.576C345.88 250.937 345.381 248.727 346.379 245.233C347.805 240.313 351.584 237.105 359.142 239.315C365.56 241.169 368.269 245.59 366.772 250.652C365.203 255.929 360.426 257.854 354.793 256.214L353.01 255.715L356.789 242.88ZM359.784 252.863C361.424 252.649 362.85 251.579 363.421 249.725C363.991 247.871 363.421 246.089 362.066 245.019C361.282 244.378 360.711 244.092 359.499 243.736L356.861 252.649C358.144 252.934 358.786 252.934 359.784 252.863Z" fill="#221E1F"/>
<path d="M353.082 272.613C354.294 272.113 355.007 271.614 355.577 270.331C356.433 268.263 355.577 265.839 352.939 264.698L341.388 259.778L343.028 255.928L361.995 264.056L360.426 267.764L358.358 266.908C359.285 268.477 359.428 270.83 358.501 272.898C357.717 274.752 356.647 275.893 354.793 276.677L353.082 272.613Z" fill="#221E1F"/>
<path d="M333.545 275.465C335.185 272.542 337.11 270.331 340.39 269.333L341.459 273.041C339.178 273.682 337.68 275.394 336.682 277.176C335.47 279.387 335.256 281.526 336.967 282.524C338.18 283.166 339.32 282.952 340.461 281.312L342.315 278.602C344.454 275.394 347.092 274.324 350.23 276.035C353.724 278.032 354.009 282.096 351.941 285.875C350.444 288.585 348.59 290.581 346.165 291.437L345.096 287.872C346.665 287.301 347.948 285.875 348.875 284.164C350.087 282.025 349.731 280.385 348.376 279.601C347.306 279.03 346.165 279.101 344.953 280.955L343.099 283.665C340.96 286.873 338.251 287.943 335.042 286.16C331.334 284.021 331.121 279.743 333.545 275.465Z" fill="#221E1F"/>
<path d="M201.064 129.793C203.916 129.793 229.657 135.854 229.657 164.517C229.657 185.623 207.838 183.27 201.064 183.27C194.29 183.27 172.543 185.623 172.543 164.517C172.472 135.854 198.212 129.793 201.064 129.793Z" fill="#E4E1DB"/>
<path d="M201.064 156.818C207.125 156.818 217.25 153.894 217.25 147.691C217.25 141.488 204.415 140.275 201.064 140.275C197.713 140.275 184.878 141.488 184.878 147.691C184.878 153.823 195.003 156.818 201.064 156.818Z" fill="black"/>
<path d="M139.031 155.391C133.54 149.901 124.628 149.901 119.066 155.391C113.576 149.901 104.663 149.901 99.1724 155.391C96.3203 158.243 94.9655 161.951 95.0369 165.659C95.0369 165.73 95.0369 165.801 95.0369 165.801C95.0369 167.299 95.3934 168.796 95.8925 170.222C96.249 171.078 96.6055 171.933 97.1046 172.718C97.1759 172.789 97.1759 172.86 97.2472 173.003C97.2472 173.074 97.3185 173.074 97.3185 173.146C103.379 182.771 116.57 180.062 118.923 187.192C121.633 179.919 133.184 183.342 139.744 174.358C144.521 168.867 144.236 160.596 139.031 155.391Z" fill="#E4E1DB"/>
<path d="M103.451 163.875C103.665 161.665 105.661 160.168 107.871 160.382C110.082 160.596 111.65 162.592 111.365 164.802C111.08 166.942 103.165 166.086 103.451 163.875Z" fill="black"/>
<path d="M134.681 163.875C134.467 161.665 132.471 160.168 130.26 160.382C128.05 160.596 126.481 162.592 126.767 164.802C127.052 166.942 134.895 166.086 134.681 163.875Z" fill="black"/>
<path d="M176.108 132.788C174.967 131.005 175.894 128.367 177.32 127.511C178.747 126.584 181.456 126.941 182.597 128.723C183.738 130.506 177.249 134.641 176.108 132.788Z" fill="#E4E1DB"/>
<path d="M226.377 132.788C227.518 131.005 226.591 128.367 225.165 127.511C223.738 126.584 221.029 126.941 219.888 128.723C218.747 130.506 225.236 134.641 226.377 132.788Z" fill="#E4E1DB"/>
<path d="M74.2878 307.693C74.2878 310.26 72.22 312.328 69.6532 312.328C67.0863 312.328 65.0186 310.26 65.0186 307.693C65.0186 305.126 67.0863 303.059 69.6532 303.059C72.22 303.059 74.2878 305.126 74.2878 307.693Z" fill="#221E1F"/>
<path d="M337.181 305.982C337.181 308.549 335.113 310.617 332.547 310.617C329.98 310.617 327.912 308.549 327.912 305.982C327.912 303.415 329.98 301.348 332.547 301.348C335.042 301.348 337.181 303.415 337.181 305.982Z" fill="#221E1F"/>
<path d="M141.812 278.246C141.812 283.879 139.744 288.157 135.608 291.081C131.473 294.004 125.982 295.43 119.066 295.43C118.21 295.43 117.497 295.43 117.069 295.359C116.57 299.78 116.214 309.477 116 316.75L106.16 312.971C106.659 309.905 107.586 301.848 109.084 288.871C109.939 280.385 110.438 273.041 110.581 266.838H116.713C117.569 266.838 119.137 266.767 121.562 266.695C123.915 266.624 125.982 266.553 127.694 266.553C131.544 266.553 134.895 267.551 137.605 269.619C140.457 271.758 141.812 274.61 141.812 278.246ZM132.899 279.815C132.899 275.466 129.975 273.255 124.057 273.255C122.489 273.255 120.777 273.469 119.066 273.826C118.923 275.822 118.496 280.885 117.783 289.013C118.353 289.084 118.995 289.084 119.708 289.084C128.478 289.013 132.899 285.947 132.899 279.815Z" fill="#E4E1DB"/>
<path d="M174.611 277.604C172.757 290.438 171.83 299.28 171.83 304.128C171.83 306.624 172.044 309.405 172.472 312.471L163.773 313.469C163.63 311.544 163.559 309.262 163.559 306.624H163.06C160.422 311.401 156.571 313.825 151.366 313.825C148.372 313.825 146.161 312.684 144.664 310.474C143.166 308.264 142.382 305.198 142.382 301.347C142.382 295.786 144.307 290.723 148.229 286.231C152.151 281.739 158.14 279.386 166.411 279.172L167.98 278.103L174.611 277.604ZM165.555 284.876C160.636 284.948 156.999 286.374 154.717 289.226C152.436 292.078 151.224 295.928 151.295 300.706C151.295 305.055 152.65 307.265 155.43 307.265C157.57 307.265 159.495 305.697 161.277 302.631C163.06 299.565 164.201 296.57 164.629 293.718C165.056 290.866 165.413 287.942 165.555 284.876Z" fill="#E4E1DB"/>
<path d="M203.774 278.817L201.92 286.018C199.923 285.376 197.642 285.02 195.146 285.02C192.08 285.02 189.656 286.232 187.873 288.656C186.162 291.081 185.235 293.861 185.235 296.999C185.235 303.559 187.73 306.91 192.793 306.839C195.645 306.839 198.782 305.769 202.205 303.701L201.064 310.689C198.212 312.828 194.718 313.826 190.583 313.826C185.734 313.826 182.098 312.329 179.816 309.263C177.463 306.197 176.322 302.418 176.322 297.926C176.322 292.507 178.176 287.801 181.884 283.95C185.591 280.1 190.511 278.175 196.572 278.104C199.282 278.175 201.706 278.389 203.774 278.817Z" fill="#E4E1DB"/>
<path d="M237.571 279.172C237.571 280.028 236.145 282.096 233.364 285.447C230.512 288.798 228.159 291.222 226.163 292.72V293.148C228.658 296 230.797 299.565 232.651 303.914C234.505 308.264 235.432 311.187 235.432 312.685L225.735 313.041C225.735 311.971 225.164 309.832 223.952 306.766C222.811 303.7 221.385 301.062 219.817 298.994C218.605 300.278 217.535 301.633 216.679 303.059C214.54 306.339 213.399 309.618 213.186 312.756L204.273 313.112C204.772 310.046 205.77 301.133 207.481 286.445C208.408 277.675 208.836 269.832 208.836 262.986L218.462 262.416C218.462 263.414 218.105 266.338 217.464 271.186C216.751 276.035 215.681 285.09 214.255 298.281H214.754C215.539 296.499 218.034 292.934 222.17 287.586C225.806 282.88 227.66 279.957 227.66 278.744L237.571 279.172Z" fill="#E4E1DB"/>
<path d="M268.588 286.374C268.588 293.433 261.03 297.069 245.914 297.426C245.914 300.563 246.484 302.845 247.696 304.413C248.837 305.982 250.905 306.695 253.757 306.695C257.536 306.695 261.6 305.483 265.879 303.059L264.809 310.046C261.315 312.471 256.823 313.754 251.404 313.754C246.556 313.754 242.99 312.328 240.709 309.405C238.427 306.481 237.215 302.702 237.215 297.925C237.215 291.793 239.14 286.802 242.99 283.094C246.841 279.386 251.404 277.532 256.68 277.461C260.317 277.461 263.24 278.174 265.308 279.743C267.519 281.311 268.588 283.522 268.588 286.374ZM260.673 287.087C260.673 284.805 258.891 283.664 255.397 283.664C253.401 283.664 251.475 284.377 249.693 285.875C247.91 287.372 246.769 289.511 246.199 292.221C255.825 292.078 260.673 290.367 260.673 287.087Z" fill="#E4E1DB"/>
<path d="M294.97 278.603L292.189 286.945C290.621 286.446 288.981 286.232 287.198 286.232C282.92 286.232 280.567 288.585 280.068 293.291C279.355 300.421 278.784 306.91 278.356 312.685L269.515 313.042C271.155 300.778 271.939 292.507 271.939 288.229C271.939 285.733 271.725 282.738 271.369 279.173L280.139 278.246C280.282 279.815 280.353 281.383 280.353 282.952H280.852C283.276 279.53 286.2 277.818 289.622 277.818C291.262 277.818 293.045 278.104 294.97 278.603Z" fill="#E4E1DB"/>
<path d="M163.06 243.093C162.774 244.805 162.347 248.441 161.634 254.074C161.348 256.712 161.206 260.349 161.135 264.841C155.43 266.267 150.796 267.051 147.23 267.051C140.171 267.051 134.895 265.055 131.259 260.99C127.693 256.926 125.84 252.006 125.84 246.16C125.84 238.53 128.407 232.113 133.683 226.979C138.888 221.845 145.377 219.278 153.149 219.278C156.785 219.278 159.922 219.635 162.632 220.277L160.635 228.619C157.213 227.621 154.147 227.193 151.295 227.193C146.375 227.193 142.524 228.976 139.672 232.398C136.82 235.892 135.394 240.17 135.394 245.233C135.394 249.297 136.535 252.791 138.817 255.571C141.098 258.424 144.307 259.778 148.514 259.778C149.797 259.778 151.295 259.636 153.077 259.351C153.077 258.923 153.006 258.138 153.006 256.926C153.006 255.785 153.077 253.718 153.291 250.652C153.434 247.586 153.576 245.019 153.576 243.022L163.06 243.093Z" fill="#E4E1DB"/>
<path d="M200.28 246.588C200.28 252.363 198.497 257.283 194.789 261.348C191.153 265.412 186.376 267.408 180.672 267.48C176.679 267.48 173.185 266.054 170.333 263.059C167.481 260.135 165.983 256.214 165.983 251.365C165.983 245.59 167.837 240.741 171.473 236.82C175.181 232.827 179.887 230.83 185.663 230.83C189.727 230.83 193.15 232.256 196.002 235.108C198.854 237.889 200.28 241.739 200.28 246.588ZM191.367 247.372C191.367 244.449 190.725 242.025 189.442 240.171C188.158 238.317 186.447 237.39 184.308 237.39C181.527 237.39 179.245 238.816 177.534 241.597C175.823 244.378 174.967 247.515 174.967 250.866C174.967 253.79 175.609 256.214 176.892 258.068C178.176 259.922 179.887 260.849 182.098 260.849C184.95 260.849 187.231 259.422 188.871 256.642C190.511 253.932 191.367 250.866 191.367 247.372Z" fill="#E4E1DB"/>
<path d="M236.217 246.516C236.217 252.291 234.434 257.211 230.726 261.275C227.09 265.34 222.313 267.336 216.608 267.407C212.615 267.407 209.121 265.981 206.269 262.987C203.417 260.063 201.92 256.142 201.92 251.293C201.92 245.517 203.774 240.669 207.41 236.747C211.118 232.754 215.824 230.758 221.599 230.758C225.664 230.758 229.086 232.184 231.938 235.036C234.719 237.817 236.145 241.667 236.217 246.516ZM227.232 247.3C227.232 244.377 226.591 241.952 225.307 240.098C224.024 238.245 222.313 237.318 220.173 237.318C217.393 237.318 215.111 238.744 213.4 241.525C211.688 244.305 210.833 247.443 210.833 250.794C210.833 253.717 211.474 256.142 212.758 257.995C214.041 259.849 215.753 260.776 217.963 260.776C220.815 260.776 223.097 259.35 224.737 256.569C226.377 253.86 227.232 250.794 227.232 247.3Z" fill="#E4E1DB"/>
<path d="M274.221 215.784C274.221 216.426 273.793 218.921 273.009 223.414C272.224 227.906 271.511 233.182 270.941 239.314C270.37 245.446 270.014 251.222 270.085 256.641C270.085 259.849 270.157 262.915 270.371 265.839L262.171 266.267C261.885 264.27 261.743 261.988 261.743 259.35L261.315 259.421C258.463 264.341 254.399 266.837 248.98 266.837C245.486 266.837 242.776 265.625 240.922 263.129C239.069 260.634 238.07 257.354 238.07 253.147C238.07 247.015 239.71 241.81 242.919 237.532C246.199 233.182 250.477 231.043 255.896 231.043C259.105 231.043 261.529 231.827 263.312 233.396H263.811C264.238 228.405 264.595 222.701 264.951 216.141L274.221 215.784ZM263.383 239.1C261.672 238.031 259.818 237.532 257.75 237.532C254.185 237.532 251.475 238.886 249.693 241.667C247.91 244.377 247.054 247.657 247.054 251.364C247.054 257.282 248.98 260.277 252.83 260.277C255.112 260.277 257.251 258.78 259.176 255.714C261.101 252.648 262.313 249.368 262.67 245.803L263.383 239.1Z" fill="#E4E1DB"/>
</svg>
