<svg width="495" height="162" viewBox="0 0 495 162" fill="none" xmlns="http://www.w3.org/2000/svg">
<path d="M3.28 64H39.12V54.08H15.12V4.8H3.28V64ZM65.7119 65.12C76.9119 65.12 87.2319 56.4 87.2319 41.68C87.2319 26.72 76.9119 18.08 65.7119 18.08C54.5119 18.08 44.1919 26.72 44.1919 41.68C44.1919 56.4 54.5119 65.12 65.7119 65.12ZM65.7119 55.52C59.6319 55.52 56.1919 50.08 56.1919 41.68C56.1919 33.04 59.6319 27.68 65.7119 27.68C71.7919 27.68 75.2319 33.04 75.2319 41.68C75.2319 50.08 71.7919 55.52 65.7119 55.52ZM105.65 64H119.25L134.21 19.2H122.93L116.37 41.52C115.17 46 113.97 50.56 112.77 55.12H112.37C111.17 50.56 109.97 46 108.77 41.52L102.21 19.2H90.37L105.65 64ZM159.604 65.12C165.364 65.12 170.804 63.28 175.284 60.16L171.284 52.96C168.084 54.96 164.964 56.08 161.204 56.08C154.484 56.08 149.764 52.24 148.804 44.88H176.404C176.724 43.84 176.964 41.68 176.964 39.52C176.964 27.12 170.564 18.08 158.244 18.08C147.604 18.08 137.364 27.2 137.364 41.68C137.364 56.4 147.124 65.12 159.604 65.12ZM148.644 37.12C149.524 30.64 153.684 27.2 158.404 27.2C164.164 27.2 166.884 31.04 166.884 37.12H148.644ZM202.733 64H214.573V42.96H222.493C235.213 42.96 245.373 36.88 245.373 23.36C245.373 9.28 235.213 4.8 222.173 4.8H202.733V64ZM214.573 33.6V14.16H221.293C229.533 14.16 233.773 16.4 233.773 23.36C233.773 30.16 229.773 33.6 221.693 33.6H214.573ZM261.391 64.8C266.511 64.8 271.071 62.72 274.911 59.44H275.151L276.031 64H285.631V37.84C285.631 24.64 279.871 18.08 268.431 18.08C261.391 18.08 254.671 20.4 249.791 23.36L253.311 31.76C257.391 29.12 262.111 27.52 266.271 27.52C269.711 27.52 271.871 28.24 272.831 29.6C273.711 31.44 274.111 33.36 273.871 35.28C255.311 35.84 247.551 40.88 248.111 51.84C248.111 59.6 253.391 64.8 261.391 64.8ZM264.991 55.84C261.551 55.84 258.991 53.6 258.911 49.84C258.831 46.64 260.671 44.08 265.791 43.36C268.351 42.96 271.071 42.72 273.871 42.48V51.52C271.071 54.32 268.431 55.76 264.991 55.84ZM315.157 65.12C320.277 65.12 325.557 63.44 329.797 59.68L325.157 51.92C322.677 54.08 319.637 55.52 316.437 55.52C308.677 55.52 305.317 48.48 305.317 41.68C305.317 33.04 309.957 27.68 316.757 27.68C319.317 27.68 321.397 28.72 323.637 30.64L329.237 23.04C325.957 20.24 321.717 18.08 316.197 18.08C304.037 18.08 293.317 26.72 293.317 41.68C293.317 56.4 302.757 65.12 315.157 65.12ZM336.804 64H348.244V52.8L354.724 45.44L365.604 64H378.324L361.364 37.52L376.884 19.2H364.084L348.564 38.56H348.244V0.159997H336.804V64ZM400.838 65.12C406.598 65.12 412.038 63.28 416.518 60.16L412.518 52.96C409.318 54.96 406.198 56.08 402.438 56.08C395.718 56.08 390.998 52.24 390.038 44.88H417.638C417.958 43.84 418.198 41.68 418.198 39.52C418.198 27.12 411.798 18.08 399.478 18.08C388.838 18.08 378.598 27.2 378.598 41.68C378.598 56.4 388.358 65.12 400.838 65.12ZM389.878 37.12C390.758 30.64 394.918 27.2 399.638 27.2C405.398 27.2 408.118 31.04 408.118 37.12H389.878ZM426.383 64H438.063V37.28C440.622 30.8 444.863 28.48 448.383 28.48C450.223 28.48 451.503 28.64 453.023 29.2L455.103 19.04C453.743 18.48 452.303 18.08 449.823 18.08C445.023 18.08 440.383 21.28 437.103 27.12H436.783L435.983 19.2H426.383V64ZM473.726 14.32L474.126 3.2H462.286L462.686 14.32L464.366 47.04H472.046L473.726 14.32ZM474.126 53.76H462.446V65.12H474.126V53.76ZM28.72 161.12C37.04 161.12 43.84 157.92 47.92 154V127.28H26.88V136.96H37.36V148.64C35.68 150.16 32.8 150.88 29.92 150.88C18.32 150.88 12.4 143.12 12.4 130.24C12.4 117.52 19.28 109.84 29.12 109.84C34.56 109.84 37.84 112 40.72 114.8L47.04 107.28C43.2 103.36 37.28 99.68 28.72 99.68C13.04 99.68 0.32 111.12 0.32 130.64C0.32 150.4 12.48 161.12 28.72 161.12ZM76.8838 161.12C88.0838 161.12 98.4038 152.4 98.4038 137.68C98.4038 122.72 88.0838 114.08 76.8838 114.08C65.6838 114.08 55.3638 122.72 55.3638 137.68C55.3638 152.4 65.6838 161.12 76.8838 161.12ZM76.8838 151.52C70.8038 151.52 67.3638 146.08 67.3638 137.68C67.3638 129.04 70.8038 123.68 76.8838 123.68C82.9638 123.68 86.4038 129.04 86.4038 137.68C86.4038 146.08 82.9638 151.52 76.8838 151.52ZM125.462 161.12C136.662 161.12 146.982 152.4 146.982 137.68C146.982 122.72 136.662 114.08 125.462 114.08C114.262 114.08 103.942 122.72 103.942 137.68C103.942 152.4 114.262 161.12 125.462 161.12ZM125.462 151.52C119.382 151.52 115.942 146.08 115.942 137.68C115.942 129.04 119.382 123.68 125.462 123.68C131.542 123.68 134.982 129.04 134.982 137.68C134.982 146.08 131.542 151.52 125.462 151.52ZM171.08 161.12C175.88 161.12 180.2 158.56 183.48 155.36H183.72L184.68 160H194.2V96.16H182.44V111.92L182.92 118.96C179.72 116 176.68 114.08 171.56 114.08C161.88 114.08 152.76 123.04 152.76 137.68C152.76 152.32 159.88 161.12 171.08 161.12ZM174.12 151.44C167.96 151.44 164.84 146.8 164.84 137.52C164.84 128.56 169.08 123.76 174.12 123.76C176.92 123.76 179.64 124.64 182.44 127.12V146.8C179.88 150.24 177.24 151.44 174.12 151.44ZM222.889 160H234.729V138.96H242.649C255.369 138.96 265.529 132.88 265.529 119.36C265.529 105.28 255.369 100.8 242.329 100.8H222.889V160ZM234.729 129.6V110.16H241.449C249.689 110.16 253.929 112.4 253.929 119.36C253.929 126.16 249.929 129.6 241.849 129.6H234.729ZM281.548 160.8C286.668 160.8 291.228 158.72 295.068 155.44H295.308L296.188 160H305.788V133.84C305.788 120.64 300.028 114.08 288.588 114.08C281.548 114.08 274.828 116.4 269.948 119.36L273.468 127.76C277.548 125.12 282.268 123.52 286.428 123.52C289.868 123.52 292.028 124.24 292.988 125.6C293.868 127.44 294.268 129.36 294.028 131.28C275.468 131.84 267.708 136.88 268.268 147.84C268.268 155.6 273.548 160.8 281.548 160.8ZM285.148 151.84C281.708 151.84 279.148 149.6 279.068 145.84C278.988 142.64 280.828 140.08 285.948 139.36C288.508 138.96 291.228 138.72 294.028 138.48V147.52C291.228 150.32 288.588 151.76 285.148 151.84ZM335.313 161.12C340.433 161.12 345.713 159.44 349.953 155.68L345.313 147.92C342.833 150.08 339.793 151.52 336.593 151.52C328.833 151.52 325.473 144.48 325.473 137.68C325.473 129.04 330.113 123.68 336.913 123.68C339.473 123.68 341.553 124.72 343.793 126.64L349.393 119.04C346.113 116.24 341.873 114.08 336.353 114.08C324.193 114.08 313.473 122.72 313.473 137.68C313.473 152.4 322.913 161.12 335.313 161.12ZM356.961 160H368.401V148.8L374.881 141.44L385.761 160H398.481L381.521 133.52L397.041 115.2H384.241L368.721 134.56H368.401V96.16H356.961V160ZM420.994 161.12C426.754 161.12 432.194 159.28 436.674 156.16L432.674 148.96C429.474 150.96 426.354 152.08 422.594 152.08C415.874 152.08 411.154 148.24 410.194 140.88H437.794C438.114 139.84 438.354 137.68 438.354 135.52C438.354 123.12 431.954 114.08 419.634 114.08C408.994 114.08 398.754 123.2 398.754 137.68C398.754 152.4 408.514 161.12 420.994 161.12ZM410.034 133.12C410.914 126.64 415.074 123.2 419.794 123.2C425.554 123.2 428.274 127.04 428.274 133.12H410.034ZM446.539 160H458.219V133.28C460.779 126.8 465.019 124.48 468.539 124.48C470.379 124.48 471.659 124.64 473.179 125.2L475.259 115.04C473.899 114.48 472.459 114.08 469.979 114.08C465.179 114.08 460.539 117.28 457.259 123.12H456.939L456.139 115.2H446.539V160ZM493.883 110.32L494.283 99.2H482.443L482.843 110.32L484.523 143.04H492.203L493.883 110.32ZM494.283 149.76H482.603V161.12H494.283V149.76Z" fill="white"/>
</svg>
