<svg xmlns="http://www.w3.org/2000/svg" viewBox="0 0 1315.63 327.12"><defs><style>.cls-1{fill:#3bc2da;}.cls-2{fill:#221e1f;}</style></defs><g id="Layer_2" data-name="Layer 2"><g id="사이즈"><polygon class="cls-1" points="11.28 327.12 24.26 298.99 4.23 275.34 19.96 264.21 1.93 223.29 17.06 198.7 0 179.82 13.18 152.86 0.11 140.56 11.69 119.19 1.45 104.97 1307.88 47.12 1293.48 81.75 1309.63 86.55 1300.63 119.67 1312.02 140.44 1302.59 164.16 1313.61 176.36 1304.31 202.94 1315.63 222.07 1300.93 249.92 1312 269.52 11.28 327.12"/><path class="cls-2" d="M228.73,26.9l-7.88.35.54,12.23-3.17.14L216.9,9.91,228,9.43c5.42-.24,9.33,3,9.56,8.31S234.15,26.66,228.73,26.9Zm-.94-14.62-7.59.33.52,11.81,7.59-.34c3.72-.16,6.21-2.28,6-6.2S231.5,12.11,227.79,12.28Z"/><path class="cls-2" d="M256,37.94l-.09-2c-1.59,1.74-3.07,2.35-5.82,2.48s-4.54-.35-5.89-1.62a6,6,0,0,1-1.73-4.11c-.15-3.59,2.24-6,6.83-6.24l6.18-.27-.09-2c-.13-3-1.7-4.44-5.46-4.27-2.62.11-3.93.8-5.06,2.56l-2.13-1.78c1.73-2.46,3.78-3.22,7.12-3.37,5.51-.24,8.32,2,8.52,6.48L259,37.81Zm-.42-9.47-5.76.26c-3.09.14-4.53,1.45-4.43,3.83s1.62,3.44,4.87,3.3c1.75-.08,3.29-.27,4.53-1.58.68-.7,1-1.89.89-3.6Z"/><path class="cls-2" d="M275.14,37.35c-5.18.23-9.25-3.1-9.56-10.11s3.45-10.69,8.63-10.92a8.16,8.16,0,0,1,6.89,2.75l-2,2A5.67,5.67,0,0,0,274.32,19a5.58,5.58,0,0,0-4.65,2.55c-.9,1.38-1.21,3-1.09,5.56s.56,4.16,1.58,5.45A5.56,5.56,0,0,0,275,34.68c2-.09,3.14-.77,4.61-2.55L281.76,34A8.16,8.16,0,0,1,275.14,37.35Z"/><path class="cls-2" d="M302,35.91l-7-10.22-3.8,4.76.26,5.93-3,.13-1.31-29.7,3-.14L291,26.53l8.79-11.09,3.75-.17-6.61,8.15,8.73,12.33Z"/><path class="cls-2" d="M310.3,9.12l-.15-3.38,3.38-.14L313.68,9Zm1.33,26.36L310.72,15l3-.14.9,20.53Z"/><path class="cls-2" d="M336.16,34.39l-.56-12.63c-.16-3.64-2.2-5.38-5.29-5.25s-5,2.11-4.85,5.69L326,34.84,323,35l-.91-20.53,3-.13.1,2.25a7.47,7.47,0,0,1,5.65-2.76,7.22,7.22,0,0,1,5.34,1.69,7.57,7.57,0,0,1,2.38,5.62l.58,13.14Z"/><path class="cls-2" d="M354.31,43a9.08,9.08,0,0,1-7.09-2.45l1.88-2a6.29,6.29,0,0,0,5,1.82c4-.17,5.51-3,5.35-6.55l-.14-3.21a6.63,6.63,0,0,1-5.64,2.93,7.05,7.05,0,0,1-5-1.62c-2.14-1.95-2.74-5.1-2.89-8.44s.18-6.53,2.13-8.66a7.16,7.16,0,0,1,4.92-2,6.46,6.46,0,0,1,5.88,2.42l-.11-2.42,3-.13.93,21.15C362.7,39,359.69,42.8,354.31,43Zm-.76-27.56c-4.46.2-5,4.07-4.79,7.91s1,7.64,5.47,7.45,4.92-4.07,4.75-7.91S358,15.29,353.55,15.48Z"/><path class="cls-2" d="M401.54,31.5l-2.8.12-6.08-15.69L388,32.1l-2.79.12L377.81,12l3.25-.15,5.45,16.27,4.65-16.72,2.59-.11,6.15,16.24,3.94-16.69,3.25-.14Z"/><path class="cls-2" d="M411.72,4.63l-.15-3.38L415,1.1l.15,3.38ZM413.05,31l-.9-20.52,3-.14.91,20.53Z"/><path class="cls-2" d="M430.2,30.23c-3.5.15-5.36-2.23-5.5-5.28l-.56-12.59-2.58.11-.1-2.29,2.58-.12-.28-6.42,3-.13.29,6.42,4.38-.19.1,2.29-4.38.2.55,12.51c.09,1.88,1,3,2.93,2.88l1.58-.07.12,2.59Z"/><path class="cls-2" d="M452.27,29.25l-.56-12.68c-.16-3.59-2.16-5.34-5.25-5.2s-5,2.1-4.89,5.65l.57,12.68-3,.14L437.82.13l3-.13.5,11.43A7.37,7.37,0,0,1,447,8.67c4.63-.2,7.51,2.64,7.72,7.27l.58,13.18Z"/><path class="cls-2" d="M187.71,88.37a10.39,10.39,0,0,1-7.39,3.09l-10.18.45-1.32-29.7L179,61.76a10.34,10.34,0,0,1,7.63,2.42c3.23,2.95,3.26,7.5,3.45,11.63S190.66,85.15,187.71,88.37Zm-3.19-21.84a7.72,7.72,0,0,0-5.93-1.91l-6.47.28,1.07,24,6.46-.28a7.76,7.76,0,0,0,5.74-2.43c2-2.22,1.68-6.64,1.52-10.27S186.66,68.57,184.52,66.53Z"/><path class="cls-2" d="M197.18,64.3,197,60.92l3.38-.15.14,3.38Zm1.33,26.35-.91-20.52,3-.13.91,20.52Z"/><path class="cls-2" d="M216.38,90.11c-3.46.16-6.21-.52-8.56-2.59l1.91-2.09a8.43,8.43,0,0,0,6.49,2.1c3.38-.15,5.41-1.45,5.31-3.87-.08-1.8-1.17-2.75-3.56-2.85l-3.39-.15c-4-.16-6.22-1.85-6.38-5.23-.16-3.76,2.91-6.15,7.29-6.34A11.61,11.61,0,0,1,223,71l-1.87,2a8.81,8.81,0,0,0-5.54-1.39c-3,.14-4.53,1.5-4.44,3.59.08,1.75,1.13,2.75,3.72,2.84l3.31.14c3.6.18,6.12,1.45,6.3,5.29S221.34,89.89,216.38,90.11Z"/><path class="cls-2" d="M243.07,88.68l-.09-2c-1.59,1.74-3.07,2.35-5.83,2.47s-4.53-.34-5.88-1.62a6,6,0,0,1-1.73-4.1c-.15-3.59,2.25-6,6.83-6.24l6.18-.27-.09-2c-.13-3-1.7-4.44-5.45-4.27-2.64.11-3.94.79-5.07,2.56l-2.13-1.79c1.73-2.46,3.78-3.21,7.12-3.36,5.51-.25,8.33,2,8.52,6.47l.62,13.94Zm-.42-9.47-5.76.26c-3.09.13-4.53,1.45-4.43,3.83s1.62,3.44,4.87,3.29c1.76-.07,3.29-.27,4.53-1.58.68-.69,1-1.88.89-3.59Z"/><path class="cls-2" d="M268,86a7.21,7.21,0,0,1-4.93,2,6.59,6.59,0,0,1-5.92-2.46l.11,2.46-3,.14-1.32-29.7,3-.14.52,11.56A6.61,6.61,0,0,1,262.09,67a7.21,7.21,0,0,1,5.09,1.57c2.17,2,2.74,5.4,2.88,8.61S269.94,83.85,268,86Zm-6.37-16.31c-4.46.2-5,4.07-4.82,8.07s1.05,7.81,5.52,7.62,5-4.07,4.78-8.07S266,69.52,261.58,69.72Z"/><path class="cls-2" d="M282.91,86.91c-3.59.17-5.32-2.1-5.46-5.23l-1.07-24.23,3-.14,1.06,24.11c.09,2,.8,3,2.89,2.89l1.62-.08.12,2.59Z"/><path class="cls-2" d="M291.42,77.05c.2,4.51,2.44,7,6.37,6.82a6.71,6.71,0,0,0,5.27-2.57l2.12,1.7a9.41,9.41,0,0,1-7.36,3.51c-5.43.24-9.12-2.86-9.44-10.12-.29-6.63,2.75-10.65,8-10.88s8.6,3.46,8.87,9.55l.06,1.38Zm10-6.12a5.27,5.27,0,0,0-9.59.42,8.65,8.65,0,0,0-.48,3.45l10.85-.48A8.6,8.6,0,0,0,301.39,70.93Z"/><path class="cls-2" d="M325.17,85l-.1-2.46a6.66,6.66,0,0,1-5.73,3A7.1,7.1,0,0,1,314.26,84c-2.18-2-2.75-5.39-2.89-8.61s.12-6.65,2.12-8.83a7.14,7.14,0,0,1,4.92-2,6.62,6.62,0,0,1,5.92,2.37l-.51-11.56,3-.13,1.32,29.7Zm-6-17.87c-4.46.2-5,4.07-4.83,8.07s1.06,7.81,5.52,7.61,5-4.06,4.79-8.06S323.66,67,319.2,67.17Z"/><path class="cls-2" d="M368,83.15,365.16,80a12.38,12.38,0,0,1-8.6,3.9c-5.76.25-9.54-3-9.77-8.22-.2-4.47,2.87-6.86,6-9.17-1.53-1.69-3.38-3.66-3.5-6.33a6.52,6.52,0,0,1,13-.53c.11,2.38-1.24,4.06-3.06,5.44,0,0-1.46,1.07-2.14,1.6l8,8.8c1.13-1.89,1.48-3.53,1.37-6.87l3-.14c.13,3.76-.53,6.84-2.35,9.22L371.94,83ZM354.66,68.44c-2.46,1.87-4.93,3.65-4.79,7,.16,3.54,2.85,5.8,6.52,5.64a9.83,9.83,0,0,0,6.88-3.19Zm1.06-12A3.29,3.29,0,0,0,352.45,60c.06,1.38.82,2.47,2.89,4.76.48-.35,1.53-1.15,1.53-1.15,1.34-1,2.58-2.12,2.51-3.83A3.46,3.46,0,0,0,355.72,56.4Z"/><path class="cls-2" d="M398.78,82c-4.46.2-7.43-.8-10.35-3.47l2.07-2.27a10.21,10.21,0,0,0,8.24,2.89c4.34-.19,6.92-2.35,6.76-5.81a4.76,4.76,0,0,0-1.58-3.65c-1-.79-1.76-1-3.94-1.25l-3.49-.39a10.76,10.76,0,0,1-5.56-2,7,7,0,0,1-2.5-5.45c-.22-5,3.26-8.54,9.14-8.8a11.94,11.94,0,0,1,9,2.86l-1.95,2.14a9.36,9.36,0,0,0-7-2.24c-4,.17-6.16,2.49-6,5.78A4.31,4.31,0,0,0,393,63.73a8.43,8.43,0,0,0,4.08,1.45l3.27.36c2.82.29,4.22.82,5.52,1.84a7.48,7.48,0,0,1,2.76,5.77C408.9,78.37,405,81.76,398.78,82Z"/><path class="cls-2" d="M417.42,71.47c.2,4.51,2.44,7,6.36,6.82a6.73,6.73,0,0,0,5.28-2.57l2.12,1.71a9.43,9.43,0,0,1-7.36,3.5c-5.43.24-9.12-2.86-9.44-10.12-.29-6.63,2.74-10.65,8-10.88s8.6,3.46,8.87,9.55l.06,1.38Zm10-6.13a5.28,5.28,0,0,0-9.6.43,8.67,8.67,0,0,0-.47,3.45l10.84-.48A8.71,8.71,0,0,0,427.39,65.34Z"/><path class="cls-2" d="M452.05,79.43l-.56-12.64c-.16-3.63-2.2-5.38-5.29-5.24s-5,2.1-4.85,5.69l.56,12.64-3,.13L438,59.49l3-.14.1,2.25a7.41,7.41,0,0,1,5.65-2.75,7.22,7.22,0,0,1,5.34,1.68,7.62,7.62,0,0,1,2.38,5.62l.58,13.14Z"/><path class="cls-2" d="M461.86,52.58l-.15-3.38,3.37-.15.15,3.38Zm1.33,26.35-.91-20.52,3-.13.91,20.52Z"/><path class="cls-2" d="M487.67,75.76a8.57,8.57,0,0,1-11.76.52c-2.19-2-2.73-4.9-2.87-8.06s.15-6.07,2.14-8.29A8.58,8.58,0,0,1,487,59.41c2.17,2,2.72,4.89,2.86,8.06S489.66,73.54,487.67,75.76ZM484.9,61.34A5.29,5.29,0,0,0,481.08,60a5.18,5.18,0,0,0-3.65,1.67c-1.43,1.57-1.49,4.12-1.39,6.41s.38,4.83,1.95,6.27a5.14,5.14,0,0,0,3.78,1.33A5.26,5.26,0,0,0,485.46,74c1.43-1.57,1.45-4.12,1.34-6.41S486.46,62.77,484.9,61.34Z"/><path class="cls-2" d="M508.26,60.3A4.31,4.31,0,0,0,504.65,59c-3,.13-4.82,2.59-4.68,5.72l.56,12.6-3,.13-.9-20.52,3-.13.11,2.5a6.92,6.92,0,0,1,5.64-3,6.31,6.31,0,0,1,5,1.7Z"/><path class="cls-2" d="M265.77,125.59l-7.88.35.54,12.22-3.17.15-1.32-29.71,11.06-.49c5.42-.24,9.32,3,9.56,8.32S271.2,125.35,265.77,125.59ZM264.83,111l-7.59.34.52,11.8,7.6-.33c3.71-.17,6.2-2.28,6-6.2S268.54,110.8,264.83,111Z"/><path class="cls-2" d="M293.05,136.63l-.08-2c-1.6,1.74-3.07,2.35-5.83,2.47s-4.53-.34-5.88-1.62a5.86,5.86,0,0,1-1.72-4.1c-.17-3.59,2.23-6,6.82-6.24l6.18-.27-.09-2c-.13-3-1.7-4.44-5.45-4.27-2.63.11-3.94.8-5.07,2.56l-2.13-1.79c1.73-2.45,3.78-3.21,7.12-3.36,5.51-.25,8.33,2,8.52,6.47l.62,13.94Zm-.41-9.47-5.76.25c-3.09.14-4.53,1.46-4.43,3.84s1.62,3.44,4.87,3.29c1.75-.07,3.29-.27,4.53-1.57.68-.7,1-1.89.88-3.6Z"/><path class="cls-2" d="M314.93,119a4.27,4.27,0,0,0-3.61-1.35c-3,.13-4.82,2.6-4.68,5.73L307.2,136l-3,.14-.91-20.53,3-.13.11,2.5a6.92,6.92,0,0,1,5.64-3,6.36,6.36,0,0,1,5,1.71Z"/><path class="cls-2" d="M328.35,135.07c-3.5.15-5.36-2.23-5.5-5.28l-.56-12.59-2.58.11-.1-2.29,2.58-.12-.28-6.42,3-.14.29,6.43,4.37-.19.11,2.29-4.38.19.55,12.52c.08,1.87,1,3,2.93,2.88l1.58-.07.12,2.58Z"/><path class="cls-2" d="M350.42,134.09l-.56-12.64c-.16-3.63-2.2-5.38-5.29-5.24s-5,2.1-4.84,5.69l.56,12.64-3,.13-.91-20.52,3-.14.11,2.26a7.4,7.4,0,0,1,5.64-2.76,7.17,7.17,0,0,1,5.34,1.69,7.57,7.57,0,0,1,2.38,5.62l.59,13.14Z"/><path class="cls-2" d="M363,124c.2,4.51,2.44,7,6.36,6.83a6.76,6.76,0,0,0,5.28-2.58l2.13,1.71a9.47,9.47,0,0,1-7.37,3.5c-5.43.24-9.12-2.85-9.44-10.11-.29-6.64,2.75-10.66,8-10.89s8.59,3.47,8.86,9.56l.06,1.37Zm10-6.12a5.28,5.28,0,0,0-9.6.42,8.67,8.67,0,0,0-.47,3.45l10.85-.48A8.64,8.64,0,0,0,373,117.92Z"/><path class="cls-2" d="M395.25,115.47a4.33,4.33,0,0,0-3.62-1.34c-3,.13-4.81,2.59-4.67,5.72l.55,12.6-3,.13-.91-20.52,3-.14.1,2.51a6.91,6.91,0,0,1,5.64-3,6.31,6.31,0,0,1,5,1.7Z"/><path class="cls-2" d="M409,131.75c-3.46.15-6.21-.52-8.56-2.59l1.91-2.09a8.39,8.39,0,0,0,6.49,2.09c3.38-.14,5.41-1.45,5.31-3.87-.08-1.79-1.17-2.75-3.56-2.85l-3.39-.14c-4-.16-6.23-1.86-6.38-5.24-.17-3.75,2.91-6.15,7.29-6.34a11.55,11.55,0,0,1,7.48,1.89l-1.88,2a8.7,8.7,0,0,0-5.53-1.38c-3,.13-4.53,1.5-4.44,3.58.08,1.75,1.13,2.75,3.72,2.85l3.31.14c3.6.18,6.12,1.44,6.3,5.28S413.93,131.53,409,131.75Z"/><path class="cls-2" d="M179.48,216.26q-1,8.94-3.21,39-.86,14.19-.14,38.09-29.76,9-48.77,9.88-37.24,1.71-57.23-18.79T48.73,233q-1.86-40.5,24.64-68.9t67.5-30.28Q160,133,174.42,136l-5.65,29.82q-18.22-4.29-33.11-3.61-26,1.18-40.22,20.26t-13,45.94q1,21.63,13.62,36T131,277.74a101.69,101.69,0,0,0,15.93-2.24q-.23-2.24-.51-8.49-.27-5.88-.08-22.17t-.31-27Z"/><path class="cls-2" d="M311.32,222.73q1.4,30.5-17.05,52.83t-49,23.73q-21.24,1-37.21-13.88T191,244.92q-1.4-30.37,17.14-52.27t49.16-23.31a49.69,49.69,0,0,1,37.13,13.4Q310.14,197.11,311.32,222.73Zm-31.5,4.2q-.72-15.5-7.86-25.13t-18.64-9.1q-14.74.68-23.25,16a61.14,61.14,0,0,0-7.69,33.17q.72,15.5,7.92,25.12t18.83,9.1q15.12-.69,23.33-15.79A62.47,62.47,0,0,0,279.82,226.93Z"/><path class="cls-2" d="M438,216.91q1.4,30.51-17.06,52.83T372,293.47q-21.26,1-37.22-13.88T317.59,239.1q-1.39-30.37,17.14-52.27t49.16-23.3A49.7,49.7,0,0,1,421,176.91Q436.79,191.3,438,216.91Zm-31.5,4.2q-.72-15.5-7.86-25.12T380,186.88q-14.74.68-23.25,16A61.14,61.14,0,0,0,349,236q.71,15.5,7.92,25.13t18.83,9.09q15.12-.69,23.32-15.79A62.47,62.47,0,0,0,406.46,221.11Z"/><path class="cls-2" d="M567.37,102.49q.15,3.26-3,27.19t-4.92,56.54q-1.77,32.58-.45,61.21.78,16.88,2.49,32.32l-28.8,2.83a172.55,172.55,0,0,1-2.63-24.3l-1.62.2q-13.8,26.81-42.29,28.12-18.51.86-29.05-11.88T445.54,240q-1.49-32.37,14.78-56t44.76-24.91q16.88-.78,26.5,7l1.76-.08q1.15-26.35,1.2-60.94Zm-34.73,83.89a36.34,36.34,0,0,0-20.13-4.71q-19,.87-27.72,15.74T477,232q1.44,31.38,21.69,30.44,12.13-.56,21.77-17.09a78.94,78.94,0,0,0,10.76-35.51Z"/><path class="cls-2" d="M736.89,149.31q1.38,29.88-19.79,46.2t-57.67,18c-3.09.14-5.43.17-7,.07q-1.42,23.63-1,62.18l-34.63,1.59q1.75-16.23,6.59-85.6,2.68-45.23,1.81-77.88l21.75-1q4.37-.19,17-1.15t21.73-1.38q20.5-.94,35.44,9.27T736.89,149.31Zm-31.25,6.83q-1.07-23.13-32.19-21.7a88.52,88.52,0,0,0-17.53,2.69q-.15,10.65-2.17,53.71,2.88.12,6.89-.07Q707.14,188.64,705.64,156.14Z"/><path class="cls-2" d="M852.68,141.86Q845.8,210.08,847,236a234.55,234.55,0,0,0,3.48,29.4l-30.58,4.92q-1.23-10.35-1.86-24.1l-1.88.09q-12.71,26-40.08,27.27-15.75.72-24.29-10.72t-9.49-31.95q-1.35-29.49,18.18-54.13t63-27.76l5.32-4.13Zm-30.82,27q-26.11,1.44-37.68,17t-10.39,41.06q1.07,23.13,15.57,22.46,11.25-.52,19.93-17.33t10.5-31.86A303.88,303.88,0,0,0,821.86,168.84Z"/><path class="cls-2" d="M955.77,141.51l-5.46,25.68a76,76,0,0,0-24.16-2.4q-16.38.77-25,13.87a48.56,48.56,0,0,0-7.91,29.74q1.6,34.88,28.1,33.66,15.13-.7,32.75-12.53l-2.86,24.93q-14.75,11.82-36.49,12.83-25.76,1.18-38.81-14.44t-14.15-39.5q-1.32-28.87,17.49-50.22T930,140.32A122.88,122.88,0,0,1,955.77,141.51Z"/><path class="cls-2" d="M1075.09,137.41q.21,4.5-14,22.88t-24.32,26.86l0,1.62q13.83,14.53,24.69,37t11.24,30.62l-34.07,2.82q-.25-5.76-7.2-21.84t-15.7-26.84a103.23,103.23,0,0,0-10.47,14.76q-10.46,18-10.81,34.69L963,262.69q1.74-16.49,7-94.65,2.76-46.6,1.07-83.1L1005,81.38q.25,5.37-2.26,31.23t-7.17,96.09l1.87-.21q3.81-9.69,24.52-38.83,18.24-25.64,18-32Z"/><path class="cls-2" d="M1185.54,158.14q1.71,37.25-78.34,42.43.75,16.5,7.25,24.41t21.75,7.2q20-.92,42.29-14.84l-2.74,24.93q-18,13.85-46.66,15.17-25.48,1.17-38.39-13.58t-14-40q-1.49-32.62,18-53.25t47.53-21.91q19.38-.9,30.74,6.6Q1184.84,143,1185.54,158.14Zm-27.76,3.78q-.55-12.12-19.18-11.27-10.63.49-19.77,8.74t-11.35,23Q1158.57,179,1157.78,161.92Z"/><path class="cls-2" d="M1277.42,126.61l-8.53,29.83a60.89,60.89,0,0,0-17.61-1.7q-22.62,1-24.1,26-2.28,37.93-3,68.65l-31.32,2.7q5.78-65.16,4.73-87.91a311.47,311.47,0,0,0-3.47-31.9l30.86-4.55q1.13,8.21,1.51,16.46l1.87-.08q11.93-18.6,30.18-19.43A72.2,72.2,0,0,1,1277.42,126.61Z"/></g></g></svg>