<svg xmlns="http://www.w3.org/2000/svg" viewBox="0 0 657.81 163.56"><defs><style>.cls-1{fill:#fff;}.cls-2{fill:#221e1f;}</style></defs><g id="Layer_2" data-name="Layer 2"><g id="사이즈"><polygon class="cls-1" points="5.64 163.56 12.13 149.49 2.12 137.67 9.98 132.1 0.96 111.65 8.53 99.35 0 89.91 6.59 76.43 0.05 70.28 5.85 59.59 0.72 52.48 653.94 23.56 646.74 40.88 654.81 43.27 650.31 59.84 656.01 70.22 651.3 82.08 656.8 88.18 652.16 101.47 657.81 111.03 650.46 124.96 656 134.76 5.64 163.56"/><path class="cls-2" d="M114.37,13.45l-4,.18.28,6.11-1.59.07L108.45,5,114,4.71c2.71-.12,4.66,1.49,4.78,4.16A4.24,4.24,0,0,1,114.37,13.45Zm-.47-7.31-3.8.17.26,5.9,3.8-.17a2.82,2.82,0,0,0,3-3.1C117.09,7,115.75,6.06,113.9,6.14Z"/><path class="cls-2" d="M128,19l0-1a3.59,3.59,0,0,1-2.91,1.24,3.67,3.67,0,0,1-2.94-.81,3,3,0,0,1-.86-2.05c-.08-1.8,1.12-3,3.41-3.12l3.09-.14,0-1c-.07-1.5-.86-2.22-2.73-2.14a2.7,2.7,0,0,0-2.54,1.29l-1.06-.9a4,4,0,0,1,3.56-1.68c2.75-.12,4.16,1,4.26,3.24l.31,7Zm-.21-4.73-2.88.12c-1.54.07-2.27.73-2.21,1.92s.8,1.72,2.43,1.65a3,3,0,0,0,2.26-.79,2.41,2.41,0,0,0,.45-1.8Z"/><path class="cls-2" d="M137.57,18.67c-2.59.12-4.63-1.55-4.78-5.05s1.73-5.34,4.31-5.46a4.07,4.07,0,0,1,3.45,1.37l-1,1a2.81,2.81,0,0,0-2.41-1,2.74,2.74,0,0,0-2.32,1.27,4.32,4.32,0,0,0-.55,2.78,4.44,4.44,0,0,0,.79,2.73,3,3,0,0,0,4.73-.21l1.07.93A4,4,0,0,1,137.57,18.67Z"/><path class="cls-2" d="M151,18l-3.48-5.12-1.9,2.39.13,3-1.5.06L143.56,3.4l1.5-.06.44,9.92,4.39-5.54,1.88-.08-3.31,4.07,4.37,6.16Z"/><path class="cls-2" d="M155.15,4.56l-.08-1.69,1.69-.07.08,1.69Zm.67,13.18-.46-10.26,1.5-.07.46,10.26Z"/><path class="cls-2" d="M168.08,17.2l-.28-6.32c-.08-1.82-1.1-2.69-2.64-2.62a2.41,2.41,0,0,0-2.43,2.84l.28,6.32-1.5.07-.45-10.26,1.5-.07.05,1.13a3.68,3.68,0,0,1,2.82-1.38,3.57,3.57,0,0,1,2.67.84,3.79,3.79,0,0,1,1.19,2.81l.29,6.57Z"/><path class="cls-2" d="M177.16,21.52a4.54,4.54,0,0,1-3.55-1.22l.94-1a3.15,3.15,0,0,0,2.5.92c2-.09,2.76-1.53,2.68-3.28l-.07-1.6a3.31,3.31,0,0,1-2.82,1.46,3.54,3.54,0,0,1-2.52-.81c-1.07-1-1.37-2.55-1.44-4.22s.08-3.26,1.06-4.33a3.58,3.58,0,0,1,2.46-1,3.23,3.23,0,0,1,2.94,1.21l-.05-1.21,1.48-.07.47,10.58A4.09,4.09,0,0,1,177.16,21.52Zm-.38-13.78c-2.24.1-2.49,2-2.4,3.95s.5,3.83,2.74,3.73,2.45-2,2.37-3.95S179,7.64,176.78,7.74Z"/><path class="cls-2" d="M200.77,15.75l-1.4.06-3-7.85L194,16.05l-1.4.06L188.91,6l1.62-.07,2.72,8.13,2.33-8.35,1.29-.06L200,13.76l2-8.34,1.63-.08Z"/><path class="cls-2" d="M205.86,2.32,205.79.63l1.68-.08.08,1.69Zm.67,13.18-.46-10.27,1.51-.06L208,15.43Z"/><path class="cls-2" d="M215.1,15.12a2.53,2.53,0,0,1-2.75-2.64l-.28-6.3-1.29.06-.05-1.15L212,5l-.14-3.21,1.5-.07L213.52,5l2.19-.1,0,1.15-2.19.09.28,6.26c0,.94.51,1.48,1.46,1.44l.8,0,.06,1.3Z"/><path class="cls-2" d="M226.13,14.63l-.27-6.34c-.08-1.8-1.08-2.67-2.63-2.6a2.41,2.41,0,0,0-2.44,2.82l.28,6.34-1.51.07L218.91.07l1.5-.07.25,5.71a3.69,3.69,0,0,1,2.83-1.37A3.47,3.47,0,0,1,227.35,8l.29,6.59Z"/><path class="cls-2" d="M93.85,44.19a5.21,5.21,0,0,1-3.69,1.54L85.07,46,84.41,31.1l5.09-.22a5.2,5.2,0,0,1,3.82,1.21C94.93,33.56,95,35.84,95,37.91S95.33,42.57,93.85,44.19ZM92.26,33.26a3.89,3.89,0,0,0-3-.95l-3.23.14.53,12,3.24-.14a3.86,3.86,0,0,0,2.87-1.21c1-1.11.83-3.32.75-5.13S93.33,34.28,92.26,33.26Z"/><path class="cls-2" d="M98.59,32.15l-.08-1.69,1.69-.08.08,1.69Zm.67,13.18L98.8,35.06l1.5-.06.46,10.26Z"/><path class="cls-2" d="M108.19,45.06a5.67,5.67,0,0,1-4.28-1.3l1-1a4.17,4.17,0,0,0,3.24,1c1.69-.07,2.71-.72,2.65-1.93,0-.9-.58-1.37-1.77-1.43l-1.7-.07c-2-.08-3.11-.93-3.19-2.62-.08-1.87,1.45-3.07,3.64-3.17a5.82,5.82,0,0,1,3.74.94l-.93,1a4.39,4.39,0,0,0-2.77-.69c-1.5.06-2.27.74-2.22,1.79,0,.87.56,1.37,1.86,1.42l1.65.07c1.81.09,3.07.72,3.15,2.64S110.67,45,108.19,45.06Z"/><path class="cls-2" d="M121.53,44.34l0-1a3.62,3.62,0,0,1-2.91,1.24,3.69,3.69,0,0,1-2.94-.81,3,3,0,0,1-.87-2.06c-.08-1.79,1.12-3,3.42-3.11l3.08-.14,0-1c-.07-1.5-.85-2.22-2.73-2.14A2.7,2.7,0,0,0,116,36.64l-1.07-.89a4,4,0,0,1,3.57-1.68c2.75-.12,4.16,1,4.26,3.24l.31,7Zm-.21-4.73-2.87.12c-1.55.07-2.27.73-2.22,1.92s.81,1.72,2.44,1.65a3,3,0,0,0,2.26-.79,2.37,2.37,0,0,0,.44-1.8Z"/><path class="cls-2" d="M134,43a3.56,3.56,0,0,1-2.46,1,3.28,3.28,0,0,1-3-1.23l.06,1.24-1.51.06-.65-14.85,1.5-.06L128.2,35A3.31,3.31,0,0,1,131,33.51a3.57,3.57,0,0,1,2.55.79c1.09,1,1.37,2.7,1.44,4.3S135,41.93,134,43Zm-3.18-8.16c-2.23.1-2.5,2-2.41,4s.53,3.9,2.76,3.8,2.48-2,2.39-4S133,34.76,130.79,34.86Z"/><path class="cls-2" d="M141.46,43.46a2.45,2.45,0,0,1-2.73-2.62l-.54-12.12,1.5-.06.54,12.05c0,1,.4,1.49,1.44,1.44l.81,0,.06,1.29Z"/><path class="cls-2" d="M145.71,38.53c.1,2.25,1.22,3.49,3.18,3.41a3.4,3.4,0,0,0,2.64-1.29l1.06.85a4.66,4.66,0,0,1-3.68,1.75c-2.71.12-4.56-1.43-4.72-5-.15-3.32,1.37-5.33,4-5.45s4.3,1.73,4.44,4.78l0,.69Zm5-3.07A2.56,2.56,0,0,0,148.23,34a2.53,2.53,0,0,0-2.33,1.64,4.35,4.35,0,0,0-.24,1.73l5.42-.24A4.5,4.5,0,0,0,150.7,35.46Z"/><path class="cls-2" d="M162.59,42.52l-.06-1.23a3.32,3.32,0,0,1-2.86,1.49,3.6,3.6,0,0,1-2.54-.79c-1.09-1-1.37-2.7-1.44-4.3s.06-3.33,1.05-4.42a3.63,3.63,0,0,1,2.47-1,3.29,3.29,0,0,1,2.95,1.19l-.25-5.78,1.5-.06.66,14.85Zm-3-8.94c-2.23.1-2.5,2-2.41,4s.52,3.91,2.76,3.81,2.48-2,2.39-4S161.83,33.49,159.6,33.58Z"/><path class="cls-2" d="M184,41.57,182.58,40a6.17,6.17,0,0,1-4.3,1.94c-2.88.13-4.77-1.52-4.89-4.11-.09-2.23,1.44-3.43,3-4.58a5.25,5.25,0,0,1-1.75-3.16,3.26,3.26,0,0,1,6.51-.27,3.2,3.2,0,0,1-1.53,2.72s-.73.53-1.07.8l4,4.4a5.61,5.61,0,0,0,.68-3.44l1.5-.06a7.06,7.06,0,0,1-1.17,4.61L186,41.49Zm-6.66-7.35c-1.23.93-2.47,1.82-2.39,3.51a2.91,2.91,0,0,0,3.26,2.83,5,5,0,0,0,3.44-1.6Zm.53-6A1.65,1.65,0,0,0,176.22,30c0,.68.41,1.23,1.45,2.38l.77-.58c.66-.51,1.29-1.06,1.25-1.92A1.73,1.73,0,0,0,177.86,28.2Z"/><path class="cls-2" d="M199.39,41a6.48,6.48,0,0,1-5.18-1.74l1-1.13a5.12,5.12,0,0,0,4.12,1.45c2.17-.1,3.46-1.18,3.38-2.91a2.39,2.39,0,0,0-.79-1.83,3.26,3.26,0,0,0-2-.62l-1.74-.19a5.4,5.4,0,0,1-2.79-1,3.52,3.52,0,0,1-1.25-2.72c-.11-2.53,1.63-4.28,4.58-4.41a6,6,0,0,1,4.49,1.44l-1,1.06a4.68,4.68,0,0,0-3.52-1.12c-2,.09-3.08,1.25-3,2.9a2.14,2.14,0,0,0,.74,1.68,4.34,4.34,0,0,0,2,.72l1.64.18a4.84,4.84,0,0,1,2.75.92,3.73,3.73,0,0,1,1.39,2.89C204.45,39.18,202.48,40.88,199.39,41Z"/><path class="cls-2" d="M208.71,35.74c.1,2.25,1.22,3.49,3.18,3.41a3.4,3.4,0,0,0,2.64-1.29l1.06.85a4.68,4.68,0,0,1-3.68,1.75c-2.71.12-4.56-1.42-4.72-5.05-.15-3.32,1.37-5.33,4-5.45s4.3,1.74,4.43,4.78l0,.69Zm5-3.07a2.56,2.56,0,0,0-2.47-1.43,2.53,2.53,0,0,0-2.33,1.64,4.18,4.18,0,0,0-.24,1.73l5.42-.24A4.45,4.45,0,0,0,213.7,32.67Z"/><path class="cls-2" d="M226,39.71l-.28-6.32c-.08-1.81-1.1-2.68-2.64-2.62a2.41,2.41,0,0,0-2.42,2.85l.28,6.32-1.51.06L219,29.74l1.5-.06.05,1.12a3.72,3.72,0,0,1,2.82-1.38,3.62,3.62,0,0,1,2.67.85,3.78,3.78,0,0,1,1.19,2.81l.3,6.57Z"/><path class="cls-2" d="M230.93,26.29l-.08-1.69,1.69-.08.08,1.69Zm.66,13.18-.45-10.26,1.5-.07.46,10.26Z"/><path class="cls-2" d="M243.83,37.88a4.28,4.28,0,0,1-5.88.26,5.52,5.52,0,0,1-1.43-4A5.51,5.51,0,0,1,237.59,30a4.31,4.31,0,0,1,5.88-.26,5.53,5.53,0,0,1,1.43,4A5.49,5.49,0,0,1,243.83,37.88Zm-1.38-7.21a2.64,2.64,0,0,0-1.91-.67,2.59,2.59,0,0,0-1.83.83A4.53,4.53,0,0,0,238,34a4.43,4.43,0,0,0,1,3.13,2.55,2.55,0,0,0,1.89.67,2.62,2.62,0,0,0,1.84-.83,4.48,4.48,0,0,0,.67-3.21A4.46,4.46,0,0,0,242.45,30.67Z"/><path class="cls-2" d="M254.13,30.15a2.13,2.13,0,0,0-1.81-.67A2.5,2.5,0,0,0,250,32.34l.27,6.3-1.5.07-.45-10.26,1.5-.07.06,1.25a3.45,3.45,0,0,1,2.81-1.51,3.23,3.23,0,0,1,2.51.85Z"/><path class="cls-2" d="M132.89,62.8l-3.95.17.27,6.11-1.58.07L127,54.3l5.53-.24c2.71-.12,4.66,1.48,4.78,4.15A4.24,4.24,0,0,1,132.89,62.8Zm-.47-7.32-3.8.17.26,5.9,3.8-.17a2.82,2.82,0,0,0,3-3.1C135.61,56.32,134.27,55.4,132.42,55.48Z"/><path class="cls-2" d="M146.53,68.31l-.05-1a3.56,3.56,0,0,1-2.91,1.24,3.67,3.67,0,0,1-2.94-.81,3,3,0,0,1-.86-2.05c-.08-1.79,1.12-3,3.41-3.12l3.09-.13-.05-1c-.06-1.5-.85-2.22-2.72-2.13A2.69,2.69,0,0,0,141,60.62l-1.06-.89A4,4,0,0,1,143.46,58c2.75-.12,4.16,1,4.26,3.24l.31,7Zm-.21-4.73-2.88.13c-1.54.07-2.27.73-2.21,1.91s.8,1.72,2.43,1.65a3,3,0,0,0,2.26-.79,2.4,2.4,0,0,0,.45-1.79Z"/><path class="cls-2" d="M157.47,59.51a2.14,2.14,0,0,0-1.81-.67,2.51,2.51,0,0,0-2.34,2.86l.28,6.3-1.5.07-.46-10.26,1.51-.07,0,1.25a3.45,3.45,0,0,1,2.82-1.5,3.12,3.12,0,0,1,2.5.85Z"/><path class="cls-2" d="M164.18,67.53a2.51,2.51,0,0,1-2.75-2.63l-.28-6.3-1.3,0,0-1.14,1.3-.06L161,54.24l1.51-.07.14,3.21,2.19-.09.05,1.14-2.19.1.28,6.26c0,.94.5,1.48,1.46,1.44l.79,0,.06,1.3Z"/><path class="cls-2" d="M175.21,67l-.28-6.32c-.08-1.81-1.1-2.68-2.64-2.62A2.42,2.42,0,0,0,169.86,61l.28,6.32-1.5.07-.45-10.27,1.5-.06.05,1.12a3.71,3.71,0,0,1,2.82-1.38,3.62,3.62,0,0,1,2.67.85,3.79,3.79,0,0,1,1.19,2.81l.29,6.57Z"/><path class="cls-2" d="M181.51,62c.1,2.26,1.22,3.5,3.18,3.41a3.36,3.36,0,0,0,2.64-1.28l1.06.85a4.69,4.69,0,0,1-3.68,1.75c-2.71.12-4.56-1.43-4.72-5.06-.15-3.31,1.37-5.32,4-5.44S188.27,58,188.4,61l0,.68Zm5-3.06a2.63,2.63,0,0,0-4.79.21,4.18,4.18,0,0,0-.24,1.73l5.42-.24A4.22,4.22,0,0,0,186.49,59Z"/><path class="cls-2" d="M197.62,57.73a2.17,2.17,0,0,0-1.8-.67,2.51,2.51,0,0,0-2.34,2.86l.28,6.3-1.51.07L191.8,56l1.5-.07.06,1.25a3.43,3.43,0,0,1,2.81-1.5,3.17,3.17,0,0,1,2.51.85Z"/><path class="cls-2" d="M204.48,65.87a5.6,5.6,0,0,1-4.27-1.29l.95-1a4.22,4.22,0,0,0,3.25,1c1.69-.07,2.7-.72,2.65-1.93,0-.9-.59-1.38-1.78-1.43l-1.7-.07c-2-.08-3.11-.93-3.18-2.62-.09-1.88,1.45-3.07,3.64-3.17a5.83,5.83,0,0,1,3.74.94l-.94,1a4.42,4.42,0,0,0-2.77-.7c-1.5.07-2.26.75-2.21,1.8,0,.87.56,1.37,1.86,1.42l1.65.07c1.8.09,3.06.72,3.15,2.64S207,65.76,204.48,65.87Z"/><path class="cls-2" d="M89.74,108.13q-.48,4.47-1.61,19.49-.42,7.09-.06,19-14.89,4.5-24.39,4.94-18.63.85-28.62-9.39t-10.7-25.69q-.93-20.25,12.32-34.45T70.44,66.93a68,68,0,0,1,16.77,1L84.39,82.88a60.57,60.57,0,0,0-16.56-1.8q-13,.58-20.11,10.13t-6.49,23q.5,10.81,6.81,18t17.43,6.68a50.9,50.9,0,0,0,8-1.12c-.08-.75-.16-2.16-.26-4.24s-.1-5.66,0-11.09,0-9.94-.15-13.52Z"/><path class="cls-2" d="M155.66,111.37q.71,15.24-8.53,26.41t-24.47,11.87a24.68,24.68,0,0,1-18.61-7q-8-7.42-8.57-20.24-.7-15.19,8.57-26.14t24.58-11.65a24.87,24.87,0,0,1,18.56,6.7Q155.08,98.56,155.66,111.37Zm-15.75,2.1q-.36-7.75-3.93-12.57a10.43,10.43,0,0,0-9.32-4.55q-7.38.34-11.63,8a30.64,30.64,0,0,0-3.84,16.58q.36,7.76,4,12.57a10.55,10.55,0,0,0,9.42,4.54q7.56-.34,11.66-7.89A31.27,31.27,0,0,0,139.91,113.47Z"/><path class="cls-2" d="M219,108.46q.71,15.24-8.53,26.41T186,146.74a24.67,24.67,0,0,1-18.6-7q-8-7.42-8.57-20.24-.7-15.18,8.57-26.13T192,81.76a24.87,24.87,0,0,1,18.56,6.7Q218.39,95.65,219,108.46Zm-15.75,2.1q-.36-7.75-3.93-12.57A10.43,10.43,0,0,0,190,93.44q-7.38.34-11.63,8A30.57,30.57,0,0,0,174.51,118q.36,7.76,4,12.57a10.55,10.55,0,0,0,9.41,4.54q7.58-.35,11.67-7.89A31.27,31.27,0,0,0,203.23,110.56Z"/><path class="cls-2" d="M283.68,51.24q.07,1.63-1.5,13.6t-2.46,28.27a305.74,305.74,0,0,0-.22,30.6q.39,8.45,1.24,16.17l-14.4,1.41A85.6,85.6,0,0,1,265,129.14l-.81.1q-6.9,13.41-21.15,14.06-9.25.42-14.52-5.94T222.77,120q-.75-16.18,7.39-28a27.39,27.39,0,0,1,22.38-12.46q8.45-.37,13.25,3.53l.88,0q.58-13.19.6-30.47ZM266.32,93.19a18.28,18.28,0,0,0-10.07-2.36q-9.5.44-13.85,7.88a30.66,30.66,0,0,0-3.91,17.3q.72,15.69,10.85,15.23,6.06-.28,10.88-8.55a39.52,39.52,0,0,0,5.39-17.75Z"/><path class="cls-2" d="M368.45,74.66q.68,14.94-9.9,23.09t-28.84,9c-1.54.07-2.71.08-3.5,0q-.72,11.8-.52,31.09l-17.31.79q.89-8.11,3.3-42.8,1.33-22.62.9-38.94l10.88-.5c1.45-.06,4.28-.26,8.49-.58s7.82-.55,10.86-.68a28.22,28.22,0,0,1,17.72,4.63Q368,64.92,368.45,74.66Zm-15.63,3.41q-.52-11.56-16.09-10.85A45,45,0,0,0,328,68.56q-.07,5.34-1.09,26.86c1,0,2.11,0,3.45,0Q353.57,94.31,352.82,78.07Z"/><path class="cls-2" d="M426.34,70.93q-3.45,34.11-2.85,47a115.57,115.57,0,0,0,1.74,14.71l-15.29,2.45q-.62-5.16-.93-12l-.94,0q-6.35,13-20,13.64-7.87.36-12.15-5.37t-4.74-16q-.67-14.75,9.09-27.06t31.49-13.89l2.66-2.06ZM410.93,84.42q-13.06.72-18.84,8.5t-5.19,20.54q.53,11.55,7.78,11.23,5.63-.27,10-8.67a47,47,0,0,0,5.25-15.93A150.62,150.62,0,0,0,410.93,84.42Z"/><path class="cls-2" d="M477.88,70.76,475.16,83.6a37.74,37.74,0,0,0-12.08-1.2,15,15,0,0,0-12.53,6.93,24.35,24.35,0,0,0-3.95,14.87q.81,17.43,14,16.83,7.58-.36,16.38-6.27l-1.43,12.47q-7.38,5.91-18.25,6.41-12.87.6-19.4-7.22t-7.08-19.74a34.27,34.27,0,0,1,8.74-25.12Q449,70.9,465,70.16A60.38,60.38,0,0,1,477.88,70.76Z"/><path class="cls-2" d="M537.55,68.71q.11,2.24-7,11.43T518.4,93.57l0,.82a72.06,72.06,0,0,1,12.34,18.5q5.44,11.25,5.62,15.31l-17,1.41q-.13-2.88-3.6-10.92a56.4,56.4,0,0,0-7.85-13.42,51.66,51.66,0,0,0-5.24,7.38q-5.22,9-5.4,17.35l-15.72,1.34Q482.36,123.1,485,84a399.53,399.53,0,0,0,.54-41.55l16.95-1.78q.12,2.69-1.13,15.61t-3.58,48.05l.93-.1q1.9-4.84,12.26-19.42,9.12-12.81,9-16Z"/><path class="cls-2" d="M592.77,79.07q.86,18.63-39.17,21.22.38,8.25,3.62,12.2t10.88,3.6q10-.45,21.14-7.42l-1.37,12.46q-9,6.93-23.32,7.59-12.75.59-19.2-6.79t-7-20q-.75-16.32,9-26.63a33.79,33.79,0,0,1,23.77-11q9.69-.44,15.37,3.31A13.54,13.54,0,0,1,592.77,79.07ZM578.89,81q-.28-6.06-9.59-5.64a15.74,15.74,0,0,0-9.89,4.37q-4.56,4.13-5.67,11.51Q579.29,89.52,578.89,81Z"/><path class="cls-2" d="M638.71,63.3l-4.26,14.92a30.65,30.65,0,0,0-8.81-.85q-11.31.52-12,13-1.14,19-1.49,34.33l-15.66,1.34q2.88-32.57,2.36-43.95a157.12,157.12,0,0,0-1.73-16l15.42-2.28q.57,4.11.76,8.24l.94-.05q6-9.28,15.08-9.71A36.12,36.12,0,0,1,638.71,63.3Z"/></g></g></svg>