<svg width="72" height="65" viewBox="0 0 72 65" fill="none" xmlns="http://www.w3.org/2000/svg">
<path d="M61.0986 21.8701H10.8484C10.4673 21.8701 10.1019 22.0215 9.83243 22.2909C9.56299 22.5604 9.41162 22.9258 9.41162 23.3068V63.4999C9.41629 63.8779 9.56977 64.2388 9.83871 64.5044C10.1076 64.77 10.4704 64.9189 10.8484 64.9189C11.2247 64.9189 11.5856 64.7694 11.8517 64.5033C12.1178 64.2372 12.2673 63.8763 12.2673 63.4999V24.7258H59.6619V63.4999C59.7011 63.8512 59.8684 64.1757 60.1318 64.4113C60.3952 64.647 60.7363 64.7773 61.0897 64.7773C61.4432 64.7773 61.7842 64.647 62.0476 64.4113C62.311 64.1757 62.4784 63.8512 62.5176 63.4999V23.3068C62.5199 23.119 62.485 22.9326 62.4147 22.7584C62.3445 22.5842 62.2403 22.4256 62.1083 22.292C61.9763 22.1583 61.8191 22.0522 61.6457 21.9798C61.4724 21.9074 61.2864 21.8701 61.0986 21.8701Z" fill="#3DC2DA"/>
<path d="M42.1021 29.9062H29.8455C29.0521 29.9062 28.4088 30.5495 28.4088 31.343V41.1518C28.4088 41.9453 29.0521 42.5885 29.8455 42.5885H42.1021C42.8956 42.5885 43.5388 41.9453 43.5388 41.1518V31.343C43.5388 30.5495 42.8956 29.9062 42.1021 29.9062Z" fill="#3DC2DA"/>
<path d="M32.9141 47.7852H20.6576C19.8641 47.7852 19.2208 48.4284 19.2208 49.2219V59.0307C19.2208 59.8242 19.8641 60.4674 20.6576 60.4674H32.9141C33.7076 60.4674 34.3508 59.8242 34.3508 59.0307V49.2219C34.3508 48.4284 33.7076 47.7852 32.9141 47.7852Z" fill="#3DC2DA"/>
<path d="M51.2722 47.7852H39.0156C38.2221 47.7852 37.5789 48.4284 37.5789 49.2219V59.0307C37.5789 59.8242 38.2221 60.4674 39.0156 60.4674H51.2722C52.0657 60.4674 52.709 59.8242 52.709 59.0307V49.2219C52.709 48.4284 52.0657 47.7852 51.2722 47.7852Z" fill="#3DC2DA"/>
<path d="M37.579 0.272736C37.3405 0.0956296 37.0513 0 36.7543 0C36.4572 0 36.1679 0.0956296 35.9294 0.272736L0.614193 24.8036C0.459613 24.9101 0.327604 25.0461 0.22597 25.2039C0.124337 25.3617 0.0551089 25.5381 0.022115 25.7229C-0.0108789 25.9076 -0.00693271 26.0971 0.0338072 26.2803C0.0745471 26.4635 0.151239 26.6369 0.259423 26.7902C0.387032 26.9834 0.561014 27.1414 0.765542 27.2499C0.97007 27.3584 1.19856 27.4138 1.43005 27.411C1.7201 27.4075 2.00318 27.3214 2.24601 27.1627L36.7276 3.16394L69.6661 27.145C69.8179 27.2664 69.9927 27.3557 70.18 27.4075C70.3673 27.4593 70.5632 27.4727 70.7558 27.4466C70.9484 27.4205 71.1338 27.3557 71.3006 27.2559C71.4674 27.1562 71.6123 27.0236 71.7264 26.8663C71.8405 26.7089 71.9215 26.5301 71.9645 26.3405C72.0074 26.151 72.0115 25.9547 71.9764 25.7635C71.9413 25.5723 71.8679 25.3903 71.7604 25.2283C71.6529 25.0664 71.5137 24.9279 71.3512 24.8214L37.579 0.272736Z" fill="#3DC2DA"/>
</svg>
