<svg width="64" height="69" viewBox="0 0 64 69" fill="none" xmlns="http://www.w3.org/2000/svg">
<path d="M62.8772 15.1111L32.3743 0.140351C32 -0.0467836 31.6257 -0.0467836 31.0643 0.140351L0.561404 15.2982L0.374269 15.4854L0.187135 15.6725C0.187135 15.6725 0.187135 15.8596 0 15.8596C0 15.8596 0 15.8597 0 16.0468V16.2339V52.3509C0 52.9123 0.374269 53.4737 0.748538 53.6608L31.2515 68.6316H31.4386C31.4386 68.6316 31.4386 68.6316 31.6257 68.6316C31.8129 68.6316 31.8129 68.6316 32 68.6316C32.1871 68.6316 32.1871 68.6316 32.3743 68.6316C32.3743 68.6316 32.3743 68.6316 32.5614 68.6316H32.7485L63.2515 53.6608C63.8129 53.4737 64 52.9123 64 52.3509V16.6082C63.8129 16.0468 63.4386 15.4854 62.8772 15.1111ZM31.8129 3.1345L58.9474 16.6082L51.462 20.1637L24.3275 6.87719L31.8129 3.1345ZM31.8129 29.8947L4.67836 16.6082L13.4737 12.3041L40.6082 25.5906L31.8129 29.8947ZM2.80702 19.0409L30.3158 32.5146V64.8889L2.80702 51.4152V19.0409ZM60.8187 51.4152L33.3099 64.8889V32.5146L42.4795 28.0234V39.0643L53.1462 33.8246V22.7836L60.8187 19.0409V51.4152Z" fill="#3DC2DA"/>
</svg>
