<svg width="72" height="63" viewBox="0 0 72 63" fill="none" xmlns="http://www.w3.org/2000/svg">
<path d="M35.9304 23.8024H9.22755C9.03651 23.8237 8.84309 23.8045 8.65999 23.746C8.47689 23.6875 8.30824 23.591 8.16497 23.4628C8.02171 23.3347 7.90708 23.1777 7.82861 23.0022C7.75015 22.8268 7.70959 22.6367 7.70959 22.4445C7.70959 22.2523 7.75015 22.0622 7.82861 21.8867C7.90708 21.7112 8.02171 21.5543 8.16497 21.4261C8.30824 21.298 8.47689 21.2015 8.65999 21.143C8.84309 21.0845 9.03651 21.0652 9.22755 21.0866H35.9304C36.1214 21.0652 36.3148 21.0845 36.4979 21.143C36.681 21.2015 36.8497 21.298 36.993 21.4261C37.1362 21.5543 37.2508 21.7112 37.3293 21.8867C37.4077 22.0622 37.4483 22.2523 37.4483 22.4445C37.4483 22.6367 37.4077 22.8268 37.3293 23.0022C37.2508 23.1777 37.1362 23.3347 36.993 23.4628C36.8497 23.591 36.681 23.6875 36.4979 23.746C36.3148 23.8045 36.1214 23.8237 35.9304 23.8024Z" fill="#3DC2DA"/>
<path d="M28.1709 33.0631H9.22755C9.03651 33.0845 8.84309 33.0652 8.65999 33.0067C8.47689 32.9482 8.30824 32.8517 8.16497 32.7236C8.02171 32.5954 7.90708 32.4385 7.82861 32.263C7.75015 32.0875 7.70959 31.8974 7.70959 31.7052C7.70959 31.513 7.75015 31.3229 7.82861 31.1475C7.90708 30.972 8.02171 30.815 8.16497 30.6869C8.30824 30.5587 8.47689 30.4622 8.65999 30.4037C8.84309 30.3452 9.03651 30.326 9.22755 30.3473H28.1709C28.3619 30.326 28.5553 30.3452 28.7384 30.4037C28.9215 30.4622 29.0902 30.5587 29.2334 30.6869C29.3767 30.815 29.4913 30.972 29.5698 31.1475C29.6483 31.3229 29.6888 31.513 29.6888 31.7052C29.6888 31.8974 29.6483 32.0875 29.5698 32.263C29.4913 32.4385 29.3767 32.5954 29.2334 32.7236C29.0902 32.8517 28.9215 32.9482 28.7384 33.0067C28.5553 33.0652 28.3619 33.0845 28.1709 33.0631Z" fill="#3DC2DA"/>
<path d="M28.1709 42.1891H9.22755C9.03651 42.2104 8.84309 42.1912 8.65999 42.1327C8.47689 42.0742 8.30824 41.9777 8.16497 41.8495C8.02171 41.7214 7.90708 41.5644 7.82861 41.3889C7.75015 41.2135 7.70959 41.0234 7.70959 40.8312C7.70959 40.639 7.75015 40.4489 7.82861 40.2734C7.90708 40.098 8.02171 39.941 8.16497 39.8128C8.30824 39.6847 8.47689 39.5882 8.65999 39.5297C8.84309 39.4712 9.03651 39.452 9.22755 39.4733H28.1709C28.3619 39.452 28.5553 39.4712 28.7384 39.5297C28.9215 39.5882 29.0902 39.6847 29.2334 39.8128C29.3767 39.941 29.4913 40.098 29.5698 40.2734C29.6483 40.4489 29.6888 40.639 29.6888 40.8312C29.6888 41.0234 29.6483 41.2135 29.5698 41.3889C29.4913 41.5644 29.3767 41.7214 29.2334 41.8495C29.0902 41.9777 28.9215 42.0742 28.7384 42.1327C28.5553 42.1912 28.3619 42.2104 28.1709 42.1891Z" fill="#3DC2DA"/>
<path d="M38.5108 51.382H23.8689C23.5065 51.382 23.159 51.238 22.9028 50.9818C22.6465 50.7255 22.5026 50.378 22.5026 50.0156C22.5025 49.837 22.538 49.6601 22.6069 49.4952C22.6757 49.3304 22.7766 49.1809 22.9037 49.0554C23.0308 48.9298 23.1816 48.8308 23.3473 48.764C23.513 48.6971 23.6903 48.6639 23.8689 48.6661H38.5108C38.6894 48.6639 38.8667 48.6971 39.0324 48.764C39.198 48.8308 39.3488 48.9298 39.4759 49.0554C39.603 49.1809 39.704 49.3304 39.7728 49.4952C39.8417 49.6601 39.8771 49.837 39.8771 50.0156C39.8771 50.378 39.7332 50.7255 39.4769 50.9818C39.2207 51.238 38.8731 51.382 38.5108 51.382Z" fill="#3DC2DA"/>
<path d="M38.8313 62.9196H8.24868C6.05944 62.9151 3.96142 62.0423 2.41497 60.4927C0.868516 58.9431 -4.55902e-06 56.8432 0 54.654V8.26557C-4.55902e-06 6.07632 0.868516 3.97649 2.41497 2.42688C3.96142 0.877271 6.05944 0.00446785 8.24868 0H34.6985C35.0596 0.00427691 35.4046 0.149567 35.66 0.404841L46.692 11.4369C46.9473 11.6922 47.0926 12.0373 47.0969 12.3984V54.5697C47.1058 55.6616 46.8987 56.7445 46.4875 57.756C46.0763 58.7676 45.4692 59.6879 44.701 60.4639C43.9328 61.2399 43.0187 61.8564 42.0114 62.2779C41.004 62.6993 39.9233 62.9174 38.8313 62.9196ZM8.24868 2.69896C7.52067 2.69896 6.79983 2.84263 6.12745 3.12173C5.45507 3.40084 4.84438 3.8099 4.33038 4.32546C3.81639 4.84102 3.40917 5.45295 3.13211 6.12618C2.85506 6.79941 2.71359 7.5207 2.71581 8.2487V54.654C2.7158 56.123 3.29819 57.532 4.33532 58.5723C5.37246 59.6126 6.77972 60.1993 8.24868 60.2037H38.8313C40.3018 60.1993 41.7108 59.6132 42.7506 58.5733C43.7905 57.5335 44.3766 56.1245 44.3811 54.654V12.955L34.125 2.69896H8.24868Z" fill="#3DC2DA"/>
<path d="M45.4102 16.043H32.4889C32.3103 16.0453 32.133 16.012 31.9673 15.9452C31.8017 15.8784 31.6509 15.7793 31.5238 15.6538C31.3967 15.5282 31.2957 15.3787 31.2269 15.2139C31.158 15.0491 31.1226 14.8722 31.1226 14.6935V2.5482C31.1012 2.35717 31.1205 2.16378 31.179 1.98068C31.2375 1.79759 31.334 1.6289 31.4622 1.48563C31.5903 1.34237 31.7473 1.22776 31.9228 1.1493C32.0982 1.07083 32.2883 1.03027 32.4805 1.03027C32.6727 1.03027 32.8628 1.07083 33.0382 1.1493C33.2137 1.22776 33.3707 1.34237 33.4988 1.48563C33.627 1.6289 33.7235 1.79759 33.782 1.98068C33.8405 2.16378 33.8598 2.35717 33.8384 2.5482V13.3272H45.4102C45.6012 13.3059 45.7946 13.3251 45.9777 13.3836C46.1608 13.4421 46.3295 13.5386 46.4728 13.6668C46.616 13.7949 46.7307 13.9519 46.8091 14.1274C46.8876 14.3028 46.9282 14.4929 46.9282 14.6851C46.9282 14.8773 46.8876 15.0674 46.8091 15.2429C46.7307 15.4183 46.616 15.5753 46.4728 15.7034C46.3295 15.8316 46.1608 15.9281 45.9777 15.9866C45.7946 16.0451 45.6012 16.0644 45.4102 16.043Z" fill="#3DC2DA"/>
<path d="M44.82 40.063L40.1643 40.704C39.8176 40.7317 39.4689 40.6841 39.1423 40.5644C38.8157 40.4448 38.5189 40.2559 38.2721 40.0107C38.0254 39.7656 37.8346 39.47 37.7128 39.1441C37.591 38.8183 37.5411 38.47 37.5665 38.1231L38.0388 33.4506C38.0711 33.0795 38.2254 32.7296 38.4774 32.4553L62.8693 7.15255C63.2724 6.80016 63.7987 6.62185 64.333 6.65662C64.8673 6.6914 65.366 6.93644 65.7201 7.3381L69.9034 11.3697C70.3112 11.7115 70.5693 12.199 70.6229 12.7283C70.6765 13.2577 70.5212 13.787 70.1902 14.2036L45.7984 39.5064C45.5456 39.7985 45.2002 39.995 44.82 40.063Z" fill="white"/>
<path d="M39.8942 42.0713C38.9401 42.0577 38.0279 41.6771 37.3471 41.0086C36.9491 40.633 36.6409 40.1726 36.4452 39.6615C36.2495 39.1505 36.1715 38.6019 36.2169 38.0566L36.6892 33.384C36.7526 32.7095 37.0372 32.0749 37.4989 31.5791L61.8907 6.27632C62.2139 5.9724 62.5939 5.73521 63.0089 5.57833C63.4239 5.42145 63.8657 5.34795 64.3091 5.36206C64.7526 5.37616 65.1889 5.47758 65.593 5.66051C65.9972 5.84344 66.3613 6.10429 66.6646 6.42813L70.848 10.4597C71.5207 11.0484 71.9323 11.88 71.9924 12.7719C72.0525 13.6638 71.7561 14.543 71.1684 15.2166L46.7766 40.5194C46.3199 40.9811 45.7299 41.2878 45.0897 41.3966L40.434 42.0207C40.2571 42.0611 40.0756 42.0781 39.8942 42.0713ZM64.1006 8.13186C64.0547 8.12573 64.0081 8.13014 63.9642 8.14476C63.9204 8.15938 63.8805 8.18381 63.8475 8.2162L39.4556 33.519C39.4351 33.5791 39.4351 33.6444 39.4556 33.7045L38.9327 38.3265C38.9325 38.4631 38.961 38.5982 39.0162 38.7231C39.0714 38.848 39.1521 38.96 39.2532 39.0519C39.3471 39.1538 39.4622 39.2339 39.5905 39.2863C39.7188 39.3388 39.857 39.3624 39.9954 39.3555L44.6512 38.7314C44.7124 38.7441 44.7755 38.7441 44.8367 38.7314L69.2285 13.4286C69.3635 13.2936 69.3298 12.8719 68.9755 12.5177L64.7921 8.46922C64.6118 8.27432 64.3651 8.15397 64.1006 8.13186Z" fill="#3DC2DA"/>
<path d="M50.5045 35.7622C50.3293 35.7628 50.1557 35.7288 49.9936 35.6622C49.8315 35.5957 49.6841 35.4978 49.5599 35.3742L42.9981 29.0485C42.8707 28.9244 42.769 28.7765 42.6988 28.6132C42.6286 28.4498 42.5912 28.2742 42.5889 28.0964C42.5865 27.9186 42.6192 27.7421 42.6851 27.577C42.7509 27.4118 42.8487 27.2613 42.9727 27.1339C43.0968 27.0065 43.2447 26.9048 43.4081 26.8346C43.5714 26.7644 43.747 26.7271 43.9248 26.7247C44.1026 26.7224 44.2791 26.7551 44.4443 26.8209C44.6094 26.8868 44.76 26.9846 44.8873 27.1086L51.4492 33.4343C51.7016 33.6873 51.8433 34.03 51.8433 34.3874C51.8433 34.7447 51.7016 35.0875 51.4492 35.3404C51.3278 35.4701 51.1817 35.5743 51.0195 35.6467C50.8572 35.7191 50.6821 35.7584 50.5045 35.7622Z" fill="#3DC2DA"/>
<path d="M63.662 22.1323C63.3092 22.1282 62.9713 21.9894 62.7174 21.7444L56.1724 15.4187C56.0232 15.3001 55.9004 15.1517 55.812 14.983C55.7236 14.8142 55.6714 14.6288 55.6588 14.4387C55.6463 14.2485 55.6737 14.0579 55.7392 13.879C55.8047 13.7 55.9069 13.5368 56.0393 13.3997C56.1716 13.2626 56.3312 13.1548 56.5077 13.083C56.6842 13.0113 56.8738 12.9772 57.0643 12.9831C57.2547 12.9889 57.4418 13.0346 57.6136 13.117C57.7854 13.1995 57.938 13.317 58.0617 13.4619L64.6067 19.7876C64.8601 20.0435 65.0022 20.389 65.0022 20.7491C65.0022 21.1092 64.8601 21.4548 64.6067 21.7106C64.3572 21.9666 64.0192 22.1175 63.662 22.1323Z" fill="#3DC2DA"/>
</svg>
