<svg width="72" height="72" viewBox="0 0 72 72" fill="none" xmlns="http://www.w3.org/2000/svg">
<path d="M31.811 16.6555C31.811 25.0256 25.0256 31.811 16.6555 31.811C8.28535 31.811 1.5 25.0256 1.5 16.6555C1.5 8.28533 8.28535 1.5 16.6555 1.5C25.0256 1.5 31.811 8.28533 31.811 16.6555Z" stroke="#3DC2DA" stroke-width="3"/>
<path d="M70.5001 16.6555C70.5001 25.0256 63.7147 31.811 55.3446 31.811C46.9744 31.811 40.1891 25.0256 40.1891 16.6555C40.1891 8.28533 46.9744 1.5 55.3446 1.5C63.7147 1.5 70.5001 8.28533 70.5001 16.6555Z" stroke="#3DC2DA" stroke-width="3"/>
<path d="M31.811 54.6555C31.811 63.0256 25.0256 69.811 16.6555 69.811C8.28535 69.811 1.5 63.0256 1.5 54.6555C1.5 46.2853 8.28535 39.5 16.6555 39.5C25.0256 39.5 31.811 46.2853 31.811 54.6555Z" stroke="#3DC2DA" stroke-width="3"/>
<path d="M70.5001 54.6555C70.5001 63.0256 63.7147 69.811 55.3446 69.811C46.9744 69.811 40.1891 63.0256 40.1891 54.6555C40.1891 46.2853 46.9744 39.5 55.3446 39.5C63.7147 39.5 70.5001 46.2853 70.5001 54.6555Z" stroke="#3DC2DA" stroke-width="3"/>
<path d="M13.9229 15.253C13.5201 14.4347 12.5326 14.0967 11.7174 14.498C10.9022 14.8993 10.5679 15.888 10.9707 16.7063L13.636 22.1204C14.0388 22.9387 15.0262 23.2767 15.8415 22.8754C16.6567 22.4741 16.991 21.4854 16.5882 20.6671L13.9229 15.253Z" fill="#3DC2DA"/>
<path d="M22.7167 13.7878C23.2183 13.0217 23.0062 11.9955 22.243 11.4957C21.4797 10.9959 20.4543 11.2119 19.9527 11.978L13.9702 21.1149C13.4685 21.8811 13.6806 22.9073 14.4439 23.407C15.2071 23.9068 16.2326 23.6908 16.7342 22.9247L22.7167 13.7878Z" fill="#3DC2DA"/>
<path d="M31.5 18H40.5" stroke="#3DC2DA" stroke-width="3"/>
<path d="M31.5 56H40.5" stroke="#3DC2DA" stroke-width="3"/>
<path d="M27 46L44.6777 28.3223" stroke="#3DC2DA" stroke-width="3"/>
</svg>
