<svg width="95" height="48" viewBox="0 0 95 48" fill="none" xmlns="http://www.w3.org/2000/svg">
<path d="M93.5296 20.3286L83.3032 7.90064C83.1657 7.73831 82.9944 7.60809 82.8011 7.51914C82.6079 7.43018 82.3975 7.38466 82.1848 7.38577H67.1113V1.42034C67.1021 1.04346 66.9472 0.684837 66.6789 0.419928C66.4107 0.155019 66.0502 0.0044859 65.6732 0L28.4248 0.213049C28.2368 0.213034 28.0506 0.250355 27.8772 0.322842C27.7037 0.395328 27.5462 0.501537 27.4141 0.635314C27.282 0.769091 27.1778 0.927772 27.1075 1.10215C27.0371 1.27653 27.0022 1.46314 27.0045 1.65115L27.1466 36.4495C27.1466 36.8309 27.2981 37.1967 27.5678 37.4664C27.8375 37.7361 28.2033 37.8876 28.5847 37.8876H33.4138C33.4138 38.1184 33.4138 38.3314 33.4138 38.5445C33.3596 39.7661 33.5535 40.986 33.9836 42.1307C34.4138 43.2754 35.0714 44.321 35.9167 45.2046C36.7621 46.0882 37.7776 46.7914 38.902 47.2719C40.0265 47.7523 41.2368 48 42.4596 48C43.6824 48 44.8926 47.7523 46.0171 47.2719C47.1416 46.7914 48.1571 46.0882 49.0024 45.2046C49.8477 44.321 50.5053 43.2754 50.9355 42.1307C51.3657 40.986 51.5595 39.7661 51.5054 38.5445C51.5054 38.3137 51.5054 38.1006 51.5054 37.8876H65.8508H70.7864C70.7864 38.1006 70.7864 38.3314 70.7864 38.5445C70.7323 39.7661 70.9263 40.986 71.3564 42.1307C71.7866 43.2754 72.4441 44.321 73.2894 45.2046C74.1347 46.0882 75.1503 46.7914 76.2748 47.2719C77.3993 47.7523 78.6095 48 79.8323 48C81.0551 48 82.2653 47.7523 83.3898 47.2719C84.5142 46.7914 85.5297 46.0882 86.3751 45.2046C87.2204 44.321 87.878 43.2754 88.3081 42.1307C88.7383 40.986 88.9322 39.7661 88.878 38.5445C88.878 38.3137 88.878 38.1006 88.878 37.8876H92.6065C92.9848 37.8829 93.346 37.7293 93.6119 37.4601C93.8778 37.1909 94.0268 36.8278 94.0268 36.4495V21.5714C94.0557 21.3391 94.0253 21.1033 93.9384 20.886C93.8514 20.6686 93.7108 20.4769 93.5296 20.3286ZM42.4152 29.3833C40.6371 29.3894 38.9003 29.9199 37.4223 30.9084C35.9444 31.8969 34.7909 33.2994 34.1062 34.9404H30.0404L29.8985 2.98271L64.2351 2.82293V8.93039L64.3594 34.7806H50.7775C50.0631 33.1625 48.8904 31.7891 47.4043 30.83C45.9183 29.8708 44.1839 29.3679 42.4152 29.3833ZM91.0619 34.7096H88.0968C87.4052 33.0677 86.2446 31.6663 84.7603 30.681C83.276 29.6956 81.5339 29.1701 79.7523 29.1701C77.9707 29.1701 76.2287 29.6956 74.7444 30.681C73.2601 31.6663 72.0996 33.0677 71.4079 34.7096H67.2356L67.1291 10.2975H81.5277L90.9908 21.7312L91.0619 34.7096Z" fill="#3DC2DA"/>
<path d="M23.2229 7.15527L4.10151 7.31506C3.90044 7.29261 3.69692 7.31284 3.50421 7.37442C3.3115 7.43601 3.13398 7.53758 2.9832 7.67246C2.83241 7.80735 2.71176 7.97254 2.62917 8.15723C2.54659 8.34192 2.50391 8.54196 2.50391 8.74427C2.50391 8.94659 2.54659 9.14663 2.62917 9.33132C2.71176 9.51601 2.83241 9.68119 2.9832 9.81608C3.13398 9.95097 3.3115 10.0525 3.50421 10.1141C3.69692 10.1757 3.90044 10.1959 4.10151 10.1735H23.2406C23.5922 10.1342 23.917 9.96677 24.1528 9.7031C24.3887 9.43943 24.5191 9.09805 24.5191 8.74427C24.5191 8.39049 24.3887 8.04912 24.1528 7.78545C23.917 7.52177 23.5922 7.3543 23.2406 7.31506L23.2229 7.15527Z" fill="#3DC2DA"/>
<path d="M26.0457 17.6123L1.27858 17.7188C0.926981 17.7581 0.602145 17.9255 0.366268 18.1892C0.130391 18.4529 0 18.7943 0 19.148C0 19.5018 0.130391 19.8432 0.366268 20.1069C0.602145 20.3705 0.926981 20.538 1.27858 20.5773L26.028 20.4707C26.408 20.4661 26.7711 20.3131 27.0398 20.0444C27.3085 19.7757 27.4615 19.4126 27.4661 19.0326C27.4661 18.6559 27.3165 18.2947 27.0501 18.0283C26.7837 17.7619 26.4224 17.6123 26.0457 17.6123Z" fill="#3DC2DA"/>
<path d="M21.5362 28.0522H5.78819C5.60018 28.0499 5.4136 28.0849 5.23922 28.1552C5.06484 28.2255 4.90617 28.3298 4.77239 28.4619C4.63861 28.594 4.53236 28.7514 4.45987 28.9249C4.38738 29.0984 4.35008 29.2845 4.3501 29.4726C4.3547 29.8525 4.5077 30.2156 4.7764 30.4843C5.0451 30.753 5.40821 30.906 5.78819 30.9106H21.554C21.9308 30.9015 22.2895 30.7465 22.5544 30.4782C22.8193 30.21 22.9698 29.8495 22.9743 29.4726C22.9767 29.2839 22.9411 29.0966 22.8695 28.922C22.7979 28.7474 22.6917 28.589 22.5574 28.4564C22.4231 28.3238 22.2635 28.2197 22.088 28.1502C21.9125 28.0807 21.7249 28.0474 21.5362 28.0522Z" fill="#3DC2DA"/>
</svg>
