<svg width="41" height="42" viewBox="0 0 41 42" fill="none" xmlns="http://www.w3.org/2000/svg">
<path fill-rule="evenodd" clip-rule="evenodd" d="M31.5 8.09683C31.0496 5.6967 28.7388 4.11609 26.3387 4.56643C23.9386 5.01678 22.358 7.32754 22.8083 9.72767C23.2587 12.1278 25.5694 13.7084 27.9696 13.2581C30.3697 12.8077 31.9503 10.497 31.5 8.09683ZM25.7855 1.61789C29.814 0.861991 33.6926 3.51502 34.4485 7.54358C35.2044 11.5721 32.5514 15.4507 28.5228 16.2066C24.4942 16.9625 20.6157 14.3095 19.8598 10.2809C19.1039 6.25235 21.7569 2.37378 25.7855 1.61789Z" fill="#E5E1D7"/>
<path fill-rule="evenodd" clip-rule="evenodd" d="M36.0362 32.2726C35.5858 29.8725 33.2751 28.2919 30.875 28.7422C28.4748 29.1926 26.8942 31.5033 27.3446 33.9034C27.7949 36.3036 30.1057 37.8842 32.5058 37.4338C34.9059 36.9835 36.4865 34.6727 36.0362 32.2726ZM30.3217 25.7937C34.3503 25.0378 38.2288 27.6908 38.9847 31.7194C39.7406 35.7479 37.0876 39.6265 33.059 40.3824C29.0305 41.1383 25.1519 38.4853 24.396 34.4567C23.6401 30.4281 26.2931 26.5496 30.3217 25.7937Z" fill="#E5E1D7"/>
<path fill-rule="evenodd" clip-rule="evenodd" d="M13.2579 24.4963C12.8075 22.0962 10.4968 20.5155 8.09658 20.9659C5.69645 21.4162 4.11584 23.727 4.56619 26.1271C5.01653 28.5273 7.32729 30.1079 9.72742 29.6575C12.1276 29.2072 13.7082 26.8964 13.2579 24.4963ZM7.54334 18.0173C11.572 17.2615 15.4505 19.9145 16.2064 23.943C16.9623 27.9716 14.3093 31.8502 10.2807 32.6061C6.2521 33.362 2.37353 30.7089 1.61764 26.6804C0.861748 22.6518 3.51477 18.7732 7.54334 18.0173Z" fill="#E5E1D7"/>
</svg>
