<svg width="48" height="41" viewBox="0 0 48 41" fill="none" xmlns="http://www.w3.org/2000/svg">
<path d="M46.4869 12.2031V12.2787L46.4935 12.3438C46.4935 12.3446 46.4936 12.3456 46.4937 12.3467C46.4944 12.357 46.4958 12.3799 46.4971 12.4149C46.4997 12.4849 46.5019 12.6036 46.4969 12.7679C46.487 13.0965 46.4486 13.6081 46.3284 14.2786C46.0885 15.6172 45.5203 17.602 44.1873 20.0395C41.5848 24.7989 36.0191 31.3677 24.1093 38.2097L23.9999 38.1286L23.8914 38.2091C12.6281 31.7384 7.0393 25.5126 4.26505 20.8329C1.42792 16.047 1.48523 12.7958 1.5045 12.3889L1.50706 12.335L1.50572 12.281C1.50481 12.2438 1.50299 12.2122 1.50155 12.1904L1.5 12.1684C1.51947 6.32696 6.4632 1.5 12.682 1.5C17.0692 1.5 20.8329 3.91899 22.6661 7.40352L23.9939 9.92731L25.3213 7.40327C27.1535 3.91902 30.9171 1.5 35.3043 1.5C41.536 1.5 46.4869 6.34609 46.4869 12.2031ZM23.2306 38.7084L23.2303 38.7086C23.2312 38.7081 23.2316 38.7078 23.2312 38.708L23.2306 38.7084Z" stroke="#E5E1D7" stroke-width="3"/>
</svg>
