<svg width="219" height="200" viewBox="0 0 219 200" fill="none" xmlns="http://www.w3.org/2000/svg">
<path d="M52.2493 83.2012H14.1179C13.6786 83.201 13.2435 83.2875 12.8377 83.4555C12.4318 83.6236 12.063 83.87 11.7523 84.1806C11.4417 84.4912 11.1953 84.8601 11.0273 85.266C10.8592 85.6719 10.7728 86.1069 10.7729 86.5462V124.678C10.7735 125.564 11.1262 126.414 11.7535 127.041C12.3808 127.667 13.2313 128.019 14.1179 128.019H52.2493C53.1359 128.019 53.9864 127.667 54.6138 127.041C55.2411 126.414 55.5939 125.564 55.5945 124.678V86.546C55.5945 86.1067 55.5081 85.6717 55.34 85.2658C55.1719 84.8599 54.9255 84.4912 54.6149 84.1805C54.3042 83.8699 53.9354 83.6235 53.5295 83.4555C53.1236 83.2875 52.6886 83.201 52.2493 83.2012Z" fill="#3DC2DA"/>
<path d="M65.6758 191.611L35.508 155.084C35.2253 154.741 34.8704 154.466 34.4687 154.277C34.067 154.087 33.6284 153.989 33.1844 153.989C32.7403 153.989 32.3018 154.087 31.9001 154.277C31.4984 154.466 31.1435 154.741 30.8607 155.084L0.688672 191.611C0.325143 192.052 0.0944171 192.587 0.0233836 193.154C-0.0476498 193.721 0.0439345 194.297 0.287464 194.814C0.530993 195.331 0.916437 195.768 1.39887 196.074C1.88131 196.38 2.44087 196.543 3.01235 196.544H63.3519C63.9238 196.544 64.484 196.382 64.967 196.076C65.45 195.77 65.8359 195.332 66.0796 194.815C66.3233 194.298 66.4148 193.722 66.3433 193.154C66.2718 192.587 66.0403 192.052 65.6758 191.611Z" fill="#3DC2DA"/>
<path d="M40.9735 1.20624C35.7869 -0.437898 30.2132 -0.400408 25.0491 1.31335C19.8851 3.02711 15.3949 6.32942 12.2203 10.7483C9.04571 15.1672 7.34923 20.4766 7.3733 25.9175C7.39737 31.3585 9.14076 36.6526 12.3543 41.0433C15.5679 45.4339 20.0871 48.6964 25.2661 50.3644C30.4452 52.0324 36.019 52.0205 41.1909 50.3306C46.3628 48.6406 50.8681 45.359 54.063 40.9548C57.2579 36.5505 58.9788 31.249 58.9798 25.808C58.9835 20.3257 57.2399 14.9849 54.002 10.561C50.764 6.13705 46.2004 2.86022 40.9735 1.20624Z" fill="#3DC2DA"/>
<path d="M216.769 188.855L186.935 147.498L184.937 144.729C197.867 134.494 206.507 119.799 209.165 103.524C209.773 99.8684 210.08 96.1686 210.081 92.4624C210.042 79.5767 206.274 66.9776 199.234 56.185C192.194 45.3925 182.181 36.8674 170.404 31.6382C161.854 27.8859 152.62 25.9461 143.283 25.9414C133.249 25.9717 123.352 28.2672 114.33 32.6568C105.308 37.0464 97.3933 43.4166 91.177 51.2923C84.9606 59.1679 80.6029 68.3456 78.4291 78.1407C76.2552 87.9357 76.3213 98.0952 78.6223 107.861C80.9234 117.627 85.4 126.747 91.7182 134.542C98.0365 142.336 106.033 148.603 115.112 152.874C124.19 157.146 134.116 159.313 144.149 159.213C154.182 159.113 164.063 156.748 173.054 152.296L173.056 152.298L175.076 155.098L205.362 197.082C206.453 198.594 208.101 199.612 209.942 199.91C211.783 200.208 213.667 199.763 215.179 198.672C216.692 197.581 217.709 195.933 218.008 194.092C218.306 192.251 217.86 190.367 216.769 188.855V188.855ZM115.021 148.942C105.9 144.346 98.0312 137.606 92.0883 129.3C86.8861 122.054 83.2967 113.778 81.5616 105.028C79.1759 93.105 80.281 80.7467 84.7443 69.436C89.2076 58.1252 96.8395 48.3425 106.724 41.2614C117.373 33.5958 130.162 29.4728 143.283 29.4756C152.13 29.4804 160.879 31.3182 168.981 34.8732C180.13 39.8261 189.609 47.8982 196.274 58.1164C202.94 68.3346 206.507 80.2627 206.547 92.4627C206.545 95.9745 206.254 99.4803 205.679 102.945C203.139 118.347 194.963 132.254 182.739 141.962L181.252 143.143C181.008 143.322 180.767 143.504 180.521 143.681C177.629 145.75 174.577 147.586 171.394 149.171L171.395 149.172C162.723 153.448 153.184 155.676 143.515 155.682C133.623 155.674 123.868 153.366 115.021 148.942V148.942ZM213.109 195.807C212.517 196.237 211.803 196.469 211.07 196.467C210.515 196.467 209.968 196.335 209.475 196.082C208.981 195.83 208.554 195.464 208.229 195.014L177.942 153.031L175.988 150.322L181.887 146.542L182.071 146.797L184.069 149.566L213.903 190.922C214.445 191.675 214.666 192.613 214.517 193.529C214.368 194.444 213.862 195.264 213.109 195.807V195.807Z" fill="#3DC2DA"/>
<path d="M198.771 101.799C199.99 94.5286 199.763 87.0895 198.102 79.9075C196.441 72.7256 193.38 65.942 189.092 59.9454C184.805 53.9489 179.377 48.8573 173.118 44.9625C166.86 41.0677 159.894 38.4461 152.621 37.2481C149.545 36.7394 146.432 36.4826 143.315 36.4805C131.407 36.5059 119.817 40.3205 110.221 47.372C100.626 54.4234 93.5243 64.3458 89.9439 75.7024C86.3907 87.0499 86.4974 99.2277 90.249 110.511C94.9643 124.497 105 136.061 118.182 142.699C126.043 146.63 134.709 148.68 143.498 148.688C156.771 148.681 169.61 143.964 179.732 135.378C189.853 126.792 196.6 114.893 198.771 101.799ZM143.498 145.154C129.565 145.163 116.199 139.641 106.336 129.801C96.4721 119.961 90.9182 106.608 90.894 92.6754C90.8697 78.743 96.3772 65.3708 106.206 55.4966C116.036 45.6224 129.383 40.054 143.315 40.0146C146.24 40.016 149.159 40.2569 152.045 40.735C165.058 42.8905 176.786 49.8603 184.899 60.2608C193.013 70.6613 196.919 83.7322 195.843 96.8791C194.767 110.026 188.787 122.288 179.09 131.23C169.393 140.173 156.689 145.143 143.498 145.154V145.154Z" fill="#3DC2DA"/>
<path d="M140.147 66.7812C141.045 64.0172 144.955 64.0172 145.853 66.7812L150.409 80.8024C150.811 82.0385 151.962 82.8754 153.262 82.8754H168.005C170.911 82.8754 172.119 86.5942 169.768 88.3024L157.841 96.9681C156.79 97.732 156.35 99.0861 156.751 100.322L161.307 114.343C162.205 117.107 159.042 119.406 156.691 117.698L144.763 109.032C143.712 108.268 142.288 108.268 141.237 109.032L129.309 117.698C126.958 119.406 123.795 117.107 124.693 114.343L129.249 100.322C129.65 99.0861 129.21 97.732 128.159 96.9681L116.232 88.3024C113.881 86.5942 115.089 82.8754 117.995 82.8754H132.738C134.038 82.8754 135.189 82.0385 135.591 80.8024L140.147 66.7812Z" fill="#3DC2DA"/>
</svg>
